<?xml version="1.0" standalone="no"?>
<!DOCTYPE svg PUBLIC "-//W3C//DTD SVG 20010904//EN"
 "http://www.w3.org/TR/2001/REC-SVG-20010904/DTD/svg10.dtd">
<svg version="1.0" xmlns="http://www.w3.org/2000/svg"
 width="1024.000000pt" height="1024.000000pt" viewBox="0 0 1024.000000 1024.000000"
 preserveAspectRatio="xMidYMid meet">

<g transform="translate(0.000000,1024.000000) scale(0.100000,-0.100000)"
fill="#000000" stroke="none">
<path d="M4768 9899 c-135 -20 -303 -114 -372 -208 -98 -133 -143 -341 -101
-461 8 -23 15 -56 15 -72 0 -26 -2 -29 -15 -18 -9 7 -36 53 -62 102 -52 102
-102 149 -213 202 -58 28 -77 31 -172 34 -186 6 -311 -46 -435 -183 -92 -99
-117 -156 -121 -277 -3 -72 0 -111 13 -150 12 -41 14 -60 6 -81 -28 -72 3
-166 71 -221 29 -23 51 -30 95 -34 49 -4 63 -10 92 -38 51 -50 176 -104 243
-104 24 0 28 -4 28 -29 0 -15 10 -43 23 -61 49 -74 133 -92 229 -48 62 29 96
69 106 127 8 47 11 46 71 -27 l44 -53 -55 -57 c-67 -70 -110 -131 -144 -211
-15 -34 -30 -61 -34 -61 -12 0 -58 57 -66 82 -11 37 -81 134 -134 187 -90 90
-204 131 -368 131 l-85 0 -68 55 c-76 61 -107 108 -135 204 -12 45 -30 77 -55
103 -35 37 -38 38 -104 38 -49 0 -81 -6 -112 -21 l-44 -21 -64 61 c-162 156
-393 191 -593 90 -147 -73 -236 -164 -282 -287 -58 -151 -46 -294 36 -451 25
-46 43 -85 42 -87 -2 -1 -37 2 -79 8 -156 22 -314 -34 -448 -158 -85 -78 -133
-167 -158 -291 -66 -320 199 -633 537 -633 36 0 92 7 125 15 91 22 86 26 79
-70 -8 -96 7 -135 50 -135 13 0 38 -3 55 -6 25 -5 31 -12 31 -31 0 -13 5 -33
10 -44 9 -15 6 -26 -16 -54 -55 -72 -52 -163 8 -231 40 -46 74 -62 143 -70 44
-5 72 -17 122 -50 l65 -44 -35 0 c-106 0 -378 111 -545 224 -115 77 -136 98
-171 168 -15 30 -41 62 -60 75 -38 26 -93 30 -110 9 -7 -8 -38 -15 -76 -18
-78 -5 -109 -24 -147 -94 -53 -96 -47 -197 17 -271 40 -47 90 -70 172 -80 47
-5 80 -20 181 -80 271 -161 526 -268 772 -323 30 -7 62 -16 71 -21 15 -8 215
-276 225 -304 5 -13 -27 -15 -274 -15 -417 0 -517 -15 -701 -102 -146 -69
-290 -228 -309 -340 -7 -41 -9 -43 -52 -50 -25 -4 -56 -16 -70 -26 -64 -48
-108 -173 -97 -279 12 -119 99 -233 177 -233 19 0 20 -6 20 -104 0 -151 -3
-162 -61 -192 -74 -37 -122 -115 -127 -203 -7 -128 39 -214 142 -265 l58 -30
204 3 c189 2 205 1 210 -16 45 -135 140 -242 325 -364 22 -15 -3 -16 -368 -16
-349 0 -395 -2 -418 -17 -30 -20 -33 -54 -6 -82 18 -20 38 -20 3497 -22 1913
-1 3491 1 3505 4 14 3 33 18 43 35 18 31 18 31 -8 58 l-26 26 -482 -2 c-265
-1 -488 2 -495 6 -10 5 2 18 41 45 90 62 167 146 212 232 23 43 45 94 49 112
5 25 11 32 23 27 66 -25 665 -36 747 -14 55 15 137 100 158 164 27 76 22 133
-16 207 -24 46 -45 71 -79 94 -57 39 -110 47 -233 38 -84 -6 -95 -5 -95 9 0
26 37 43 143 67 109 24 226 77 257 117 24 31 27 120 6 198 -26 97 -119 332
-196 491 -113 235 -219 387 -294 423 -81 40 -172 25 -332 -54 l-84 -41 -14 41
c-151 428 -240 626 -360 804 -42 62 -46 86 -13 78 107 -25 193 -37 315 -43
113 -5 142 -10 142 -21 0 -8 -18 -45 -40 -82 -50 -84 -69 -171 -52 -230 25
-81 82 -52 82 43 0 40 11 73 49 156 l49 105 56 7 c178 23 267 189 186 348 -12
23 -19 44 -17 47 3 2 31 -7 63 -20 33 -14 75 -27 94 -29 33 -3 35 -2 42 37 4
22 7 57 7 78 1 42 3 43 62 21 60 -22 215 -22 298 0 316 82 503 401 421 720
-27 105 -63 169 -140 246 -166 166 -403 206 -617 104 -54 -26 -92 -54 -153
-115 -89 -90 -139 -177 -169 -295 -10 -37 -23 -70 -28 -71 -5 -2 -17 23 -27
54 -34 107 -123 206 -244 271 -72 38 -72 39 -52 57 19 17 26 18 63 7 161 -46
167 -45 167 38 0 33 3 60 8 60 4 -1 34 -7 67 -15 83 -20 148 -19 241 6 195 51
345 191 411 382 53 155 31 339 -55 472 -135 209 -365 299 -638 249 -30 -6 -31
-5 -43 53 -18 80 -74 186 -129 245 -140 150 -323 212 -513 173 -273 -55 -459
-282 -459 -559 1 -111 10 -157 56 -254 28 -61 51 -92 125 -165 l91 -90 -47
-43 c-30 -27 -46 -49 -43 -61 2 -10 29 -35 60 -56 l57 -38 -15 -47 c-8 -26
-20 -73 -26 -105 -11 -56 -13 -58 -41 -55 -26 3 -32 9 -47 54 -26 74 -47 111
-93 161 -57 62 -138 115 -227 149 -66 25 -88 28 -190 28 -92 0 -125 -4 -165
-20 l-50 -20 -102 103 -101 102 42 25 c24 14 58 42 77 63 24 28 41 38 63 39
17 1 43 2 58 2 34 2 93 53 119 103 22 43 25 124 7 164 -9 20 -9 41 2 93 7 37
13 106 13 154 -1 75 -5 95 -31 151 -48 103 -152 193 -277 239 -51 19 -80 22
-200 22 -130 0 -146 -2 -215 -28 -101 -38 -134 -38 -192 2 -57 39 -70 40 -98
5 -20 -25 -22 -37 -18 -123 3 -84 7 -102 35 -153 l31 -58 -39 -57 c-38 -54
-40 -64 -46 -149 -5 -76 -2 -102 17 -164 31 -103 53 -142 121 -215 32 -35 59
-67 59 -71 0 -5 -62 -8 -138 -8 -123 0 -142 -3 -190 -24 -108 -49 -210 -147
-265 -258 l-27 -51 -60 59 c-67 65 -69 71 -85 245 l-7 71 69 13 c117 22 122
30 68 114 -19 30 -35 57 -35 60 0 3 26 18 58 32 84 40 197 157 249 259 74 144
92 247 69 384 -36 208 -172 371 -363 436 -79 27 -184 36 -265 24z m210 -133
c28 -14 52 -30 52 -34 0 -25 -80 -62 -134 -62 -36 -1 -97 -21 -117 -39 -8 -7
-28 -21 -46 -31 -35 -21 -93 -94 -93 -117 0 -53 -64 -103 -132 -103 -31 0 -34
-3 -50 -56 -14 -51 -15 -62 -2 -105 15 -51 16 -121 1 -112 -14 8 -44 84 -57
145 -17 76 1 220 37 301 45 100 182 205 309 236 69 18 173 7 232 -23z m1252
-342 c81 -39 144 -99 178 -172 22 -48 27 -71 27 -144 0 -105 -6 -114 -72 -102
-46 9 -48 11 -55 49 -4 22 -7 74 -7 116 -1 104 -8 108 -107 67 -72 -30 -90
-33 -201 -36 -133 -4 -214 10 -287 51 -49 27 -96 94 -103 148 l-6 40 60 -30
c74 -38 103 -39 160 -5 62 36 152 54 258 51 76 -2 100 -7 155 -33z m-2290 -59
c80 -28 129 -64 167 -121 22 -34 33 -58 27 -64 -14 -14 -204 -40 -291 -40 -90
0 -186 20 -212 44 -10 9 -26 16 -37 16 -10 0 -39 6 -62 13 l-44 13 26 30 c29
35 125 89 206 116 63 21 149 18 220 -7z m645 -50 c45 -44 22 -115 -37 -115
-63 0 -89 61 -47 114 26 33 53 33 84 1z m2993 -5 c19 -5 53 -21 77 -34 43 -26
43 -26 33 -62 -5 -20 -7 -39 -3 -42 4 -4 30 -7 59 -7 64 0 79 -11 116 -86 43
-85 35 -129 -52 -279 -90 -157 -208 -234 -381 -249 -87 -8 -205 14 -265 49
-43 26 -45 25 -37 -7 12 -48 -19 -9 -56 69 -29 63 -34 86 -37 170 -4 78 0 110
17 167 58 190 229 319 426 320 39 1 85 -3 103 -9z m-4099 -147 c0 -39 -23
-130 -55 -217 -15 -42 -18 -46 -28 -30 -5 11 -10 51 -10 89 -1 70 21 131 62
178 23 26 32 21 31 -20z m2322 -43 c167 -33 266 -27 390 24 14 6 17 -4 22 -71
3 -50 14 -101 31 -143 36 -89 40 -95 65 -98 21 -3 25 1 35 51 8 35 38 36 71 2
36 -35 34 -93 -4 -134 -27 -29 -31 -30 -62 -19 -19 6 -41 17 -51 25 -14 13
-17 10 -28 -23 -14 -43 -76 -114 -126 -145 -47 -29 -128 -49 -198 -49 -72 0
-158 42 -229 112 -78 78 -124 205 -114 312 6 68 62 190 82 182 9 -3 61 -15
116 -26z m-2189 -62 c46 -20 70 -23 183 -22 79 0 163 7 214 17 46 10 84 17 86
17 2 0 6 -12 10 -27 8 -35 52 -93 69 -93 14 0 26 42 26 86 0 44 57 18 80 -35
25 -60 -10 -131 -71 -146 -24 -6 -27 -11 -32 -77 -10 -123 -59 -195 -181 -268
-30 -18 -58 -25 -122 -28 -77 -4 -88 -2 -151 27 -49 23 -82 47 -118 87 l-50
56 -37 -18 c-34 -16 -38 -16 -62 0 -34 21 -54 54 -58 91 -4 43 28 45 67 5 49
-51 57 -42 54 58 -2 90 23 292 36 292 2 0 28 -10 57 -22z m952 -227 c22 -16
69 -38 104 -51 34 -12 62 -27 62 -32 0 -4 -12 -26 -26 -47 -16 -25 -24 -50
-22 -68 3 -27 6 -28 78 -38 l75 -10 9 -108 c5 -59 6 -110 3 -114 -4 -3 -35 2
-69 13 -95 27 -226 25 -306 -5 l-63 -24 -45 51 c-24 28 -76 72 -114 97 l-70
46 39 72 c22 40 45 92 51 117 7 25 27 62 46 82 38 43 59 86 69 147 l7 41 65
-70 c36 -39 84 -84 107 -99z m3783 4 c76 -22 134 -59 191 -118 56 -60 82 -106
106 -186 17 -57 22 -161 8 -161 -5 0 -16 -16 -25 -35 -20 -41 -21 -49 -7 -40
6 3 7 -1 4 -10 -4 -9 -12 -14 -19 -11 -7 2 -33 -16 -59 -40 -25 -25 -46 -42
-46 -38 0 3 -6 1 -13 -5 -8 -6 -13 -28 -12 -50 1 -40 -9 -44 -42 -19 -7 6 -18
6 -25 2 -10 -5 -11 -4 0 7 21 23 13 30 -17 14 -28 -14 -49 -50 -37 -62 3 -4 6
-1 6 6 0 7 5 9 12 5 8 -5 9 0 5 17 -6 23 -5 23 9 4 13 -17 12 -20 -3 -29 -10
-5 -21 -14 -24 -19 -9 -13 -22 30 -13 44 5 9 -1 10 -22 4 -60 -15 -211 -16
-241 0 -15 8 -32 15 -38 15 -23 1 -106 72 -127 110 -13 22 -26 40 -30 40 -12
0 -9 -25 5 -39 10 -10 9 -11 -5 -6 -10 4 -18 16 -18 27 0 13 -4 17 -12 12 -9
-5 -9 -3 1 9 7 9 17 14 22 11 5 -3 9 2 9 11 0 12 -5 15 -16 11 -13 -5 -15 -1
-10 19 4 17 2 25 -6 26 -10 0 -9 2 1 6 11 5 11 7 0 14 -12 7 -11 9 1 9 11 0
12 2 3 8 -9 6 2 28 39 77 65 90 96 159 118 265 l17 85 44 11 c64 17 206 17
266 -1z m-5729 -36 c77 -26 132 -61 175 -108 41 -45 40 -44 37 -120 -1 -41 1
-52 11 -46 9 6 10 3 4 -11 -4 -10 -11 -41 -15 -69 -16 -103 -54 -192 -105
-247 -14 -16 -22 -33 -19 -42 3 -9 1 -16 -5 -16 -6 0 -11 6 -12 13 0 10 -2 10
-6 0 -2 -7 -10 -13 -18 -13 -7 0 -19 -7 -26 -16 -12 -15 -11 -16 9 -10 30 10
28 0 -4 -17 -17 -9 -23 -17 -15 -21 6 -4 11 -2 11 3 0 16 26 13 39 -3 9 -11
10 -20 1 -36 -11 -20 -30 -19 -30 1 0 6 5 7 10 4 12 -8 13 5 1 24 -8 12 -11 9
-16 -11 -10 -39 11 -59 44 -42 28 15 44 9 21 -7 -13 -9 -13 -10 0 -6 19 5 26
46 10 61 -9 8 -11 7 -8 -6 1 -9 -1 -18 -7 -20 -5 -2 -9 8 -10 22 0 14 -4 31
-8 38 -15 22 3 13 34 -19 16 -16 26 -35 23 -42 -5 -9 -4 -9 5 -1 15 14 23 54
10 54 -5 0 -9 -5 -9 -11 0 -5 -5 -7 -11 -4 -6 4 -8 13 -5 21 3 9 -1 14 -12 14
-9 0 -24 5 -32 11 -12 8 -9 10 12 6 20 -3 25 0 20 11 -4 11 -1 14 11 9 11 -4
14 -2 10 9 -6 15 5 18 24 6 14 -9 5 -26 -17 -35 -12 -4 -11 -6 3 -6 10 -1 20
6 23 14 4 8 11 12 17 8 5 -3 7 -1 3 5 -3 6 -2 13 4 17 5 3 10 1 10 -4 0 -6 5
-11 11 -11 5 0 7 5 3 12 -5 8 -2 9 10 5 10 -4 15 -3 11 3 -3 6 -13 10 -21 10
-8 0 -14 9 -13 23 1 16 3 17 6 5 2 -9 10 -15 17 -12 7 3 19 -7 26 -21 13 -24
12 -31 -14 -80 -32 -62 -64 -95 -74 -78 -5 7 -12 6 -22 -5 -13 -14 -12 -15 3
-9 9 3 17 2 17 -2 0 -12 -29 -23 -41 -15 -5 3 -8 0 -7 -7 5 -20 -69 -37 -158
-38 -91 -1 -166 11 -215 34 -22 10 -26 14 -11 11 15 -3 22 0 19 7 -3 7 -9 11
-15 10 -6 -2 -9 4 -6 12 5 11 -3 13 -33 11 -21 -2 -49 3 -63 10 -47 24 -109
99 -147 179 -37 78 -38 83 -38 195 0 106 2 119 28 169 35 69 67 106 131 155
124 94 257 116 404 65z m2235 -69 c-3 -11 -9 -20 -15 -20 -5 0 -4 9 2 20 6 11
12 20 14 20 2 0 2 -9 -1 -20z m78 -27 c12 -15 12 -16 -4 -10 -10 4 -23 7 -28
7 -5 0 -9 5 -9 10 0 16 26 12 41 -7z m-1823 -36 c6 -7 21 -43 33 -81 l23 -69
-51 -48 c-29 -27 -58 -49 -66 -49 -9 0 -21 30 -36 88 -37 140 -37 138 -5 156
35 19 88 20 102 3z m2858 -197 c31 0 34 -3 34 -30 0 -23 -5 -31 -25 -36 -29
-7 -76 10 -100 36 -23 26 -10 43 27 36 17 -3 46 -6 64 -6z m-2656 -133 c-3 -2
-34 -23 -68 -46 l-64 -41 -40 41 -40 41 58 53 59 54 50 -49 c27 -27 47 -51 45
-53z m780 83 c14 -26 -1 -55 -43 -80 -45 -28 -64 -25 -87 13 -27 43 -22 58 25
73 61 19 93 17 105 -6z m1620 -14 c126 -65 131 -111 17 -176 -91 -52 -181 -37
-289 50 -28 22 -54 40 -58 40 -4 0 -15 -9 -26 -21 -15 -16 -16 -23 -6 -37 32
-45 46 -83 36 -100 -15 -24 -211 -89 -225 -75 -17 17 14 109 59 179 79 122
191 177 347 171 74 -3 100 -8 145 -31z m-2858 -8 c-7 -7 -12 -8 -12 -2 0 14
12 26 19 19 2 -3 -1 -11 -7 -17z m3335 -45 c41 -37 77 -73 80 -80 3 -8 -17
-37 -45 -67 -28 -29 -65 -76 -82 -105 -17 -28 -37 -51 -43 -51 -7 0 -30 11
-52 23 -40 23 -40 23 -46 97 -3 41 -11 87 -17 102 -10 24 -8 27 15 33 42 10
69 33 88 75 10 22 20 40 23 40 3 0 38 -30 79 -67z m-3322 25 c-11 -6 -23 -16
-27 -22 -5 -7 -8 -5 -8 6 0 9 8 19 18 21 31 8 37 7 17 -5z m18 -21 c3 -8 -1
-14 -8 -14 -7 0 -11 6 -8 14 3 7 6 13 8 13 2 0 5 -6 8 -13z m27 3 c0 -5 -2
-10 -4 -10 -3 0 -8 5 -11 10 -3 6 -1 10 4 10 6 0 11 -4 11 -10z m-14 -55 c-9
-7 -16 -17 -16 -24 0 -6 -4 -11 -10 -11 -17 0 -11 19 10 32 11 7 20 20 21 28
0 12 2 12 6 1 3 -8 -2 -20 -11 -26z m4798 -2 c2 -10 10 -45 16 -78 7 -33 27
-88 46 -122 19 -34 34 -66 34 -72 0 -6 -12 -17 -27 -25 -51 -26 -83 -63 -83
-95 0 -25 8 -36 40 -57 22 -15 40 -32 40 -38 0 -7 -13 -25 -29 -40 -26 -25
-36 -28 -112 -29 -67 -2 -91 -7 -120 -25 -46 -28 -45 -28 -54 6 -15 61 -56
112 -128 159 -40 26 -74 48 -76 50 -2 1 6 28 17 60 12 32 24 73 27 91 7 32 9
34 39 28 17 -3 58 -9 90 -12 l59 -7 -6 79 c-3 43 -8 87 -12 97 -6 15 0 17 51
18 33 0 79 6 104 13 64 19 78 18 84 -1z m-4864 -3 c0 -6 -7 -13 -15 -16 -8 -4
-12 -10 -9 -15 3 -5 0 -9 -5 -9 -14 0 -14 6 1 30 14 22 28 26 28 10z m4520
-47 c0 -6 3 -19 7 -28 5 -15 1 -16 -28 -10 -56 12 -111 37 -102 46 5 5 26 17
48 28 l40 20 17 -22 c10 -12 18 -27 18 -34z m-2558 17 c73 -27 146 -76 169
-114 10 -16 16 -32 14 -34 -2 -2 -38 14 -79 37 -81 44 -167 71 -229 71 -28 0
-38 -4 -34 -13 16 -42 39 -137 35 -148 -8 -25 -60 60 -66 106 -4 39 -8 45 -27
45 -42 0 -166 -73 -226 -133 -71 -71 -112 -152 -136 -269 -9 -49 -20 -88 -24
-88 -4 0 -12 14 -18 31 -49 142 83 399 250 485 111 57 258 67 371 24z m-1952
-10 c0 -11 5 -20 11 -20 5 0 7 -5 3 -11 -4 -8 -12 -3 -20 12 -16 29 -17 39 -4
39 6 0 10 -9 10 -20z m50 -39 c-6 -23 -15 -41 -20 -41 -14 0 -12 13 3 29 10
11 9 12 -2 6 -10 -6 -13 -4 -8 7 3 9 0 21 -6 28 -10 10 -8 12 6 7 12 -4 20 -1
24 10 12 31 14 -5 3 -46z m741 38 c20 -5 44 -17 53 -28 17 -18 15 -19 -81 -18
-94 2 -101 0 -173 -35 -117 -57 -187 -118 -221 -195 -22 -47 -34 -63 -47 -61
-45 8 -7 138 64 217 103 114 253 159 405 120z m-552 -24 c24 -19 48 -35 52
-35 16 0 9 -27 -11 -45 -62 -56 -87 -262 -42 -340 22 -36 22 -40 8 -77 -35
-86 -15 -127 131 -268 95 -92 116 -108 173 -128 38 -13 88 -22 122 -22 55 0
83 -14 58 -30 -6 -4 -44 -10 -83 -13 -91 -8 -135 -21 -180 -51 l-36 -25 -37
45 c-20 25 -46 49 -59 54 -13 5 -42 43 -71 95 -27 47 -84 140 -126 205 -76
116 -93 160 -64 160 8 0 32 21 52 46 l38 45 -52 50 c-29 27 -52 54 -52 59 0 5
13 28 28 52 36 55 67 128 83 201 8 31 16 57 19 57 3 0 25 -16 49 -35z m-292 0
c-4 -8 -2 -17 3 -20 6 -4 10 -14 10 -23 -1 -11 -6 -8 -16 11 -8 15 -12 32 -9
37 9 15 18 12 12 -5z m5819 -7 c-3 -13 -5 -26 -5 -30 -1 -12 -34 -9 -51 3 -13
9 -12 10 3 5 29 -9 48 3 36 25 -7 15 -6 19 6 19 10 0 14 -7 11 -22z m-1832
-31 c133 -66 215 -170 247 -314 14 -60 27 -68 86 -55 82 19 174 -28 233 -116
35 -53 35 -50 13 -118 l-16 -53 -51 -6 c-93 -11 -107 -17 -151 -58 -69 -67
-80 -135 -39 -232 45 -104 41 -119 -26 -125 -74 -6 -98 0 -127 33 -15 17 -58
62 -95 98 -38 36 -68 68 -68 71 0 3 26 33 58 65 57 60 96 88 110 79 14 -9 87
50 104 84 9 19 20 56 23 81 9 63 -8 79 -84 79 -81 0 -147 22 -232 78 -114 75
-183 179 -196 294 -3 29 -10 60 -14 70 -16 30 -48 9 -79 -52 -16 -32 -49 -75
-74 -97 -52 -46 -146 -98 -195 -108 l-34 -7 7 41 c16 103 84 198 181 255 71
42 139 56 247 52 89 -3 105 -6 172 -39z m1106 13 c0 -5 -2 -10 -4 -10 -3 0 -8
5 -11 10 -3 6 -1 10 4 10 6 0 11 -4 11 -10z m-5120 -15 c-7 -8 -17 -15 -22
-15 -6 0 -5 7 2 15 7 8 17 15 22 15 6 0 5 -7 -2 -15z m3126 4 c3 -6 10 -69 14
-140 5 -103 10 -133 25 -149 13 -15 22 -17 36 -9 11 5 19 16 19 24 0 7 5 26
11 42 l10 28 30 -33 c39 -43 38 -81 -2 -127 -24 -27 -39 -35 -64 -35 -31 0
-35 -4 -60 -57 -49 -108 -130 -168 -257 -193 -166 -33 -320 44 -397 198 -19
37 -25 42 -55 42 -22 0 -45 9 -65 26 -27 23 -31 32 -31 79 0 52 7 66 43 78 13
5 23 -2 38 -28 15 -24 28 -35 44 -35 22 0 24 5 27 56 3 64 5 65 92 89 41 12
70 27 94 51 l35 35 48 -20 c26 -12 65 -21 86 -21 57 0 162 38 212 76 48 37 56
40 67 23z m-3103 -23 c4 -10 1 -13 -9 -9 -7 3 -14 9 -14 14 0 14 17 10 23 -5z
m5752 4 c3 -5 1 -10 -4 -10 -6 0 -11 5 -11 10 0 6 2 10 4 10 3 0 8 -4 11 -10z
m49 -17 c5 -12 -12 -35 -60 -81 -58 -57 -68 -63 -76 -48 -7 12 -7 21 1 29 8 8
11 6 11 -8 1 -20 1 -20 15 -1 8 10 12 23 9 27 -3 5 0 9 6 9 7 0 10 5 8 12 -6
17 55 58 65 44 5 -6 5 -1 2 12 -7 25 10 30 19 5z m-693 -10 c13 -16 12 -17 -3
-4 -10 7 -18 15 -18 17 0 8 8 3 21 -13z m-23 -18 c-3 -3 -9 2 -12 12 -6 14 -5
15 5 6 7 -7 10 -15 7 -18z m118 -17 c4 -7 3 -8 -4 -4 -8 5 -12 -3 -12 -23 0
-17 -4 -31 -8 -31 -10 0 -9 41 1 58 10 15 14 15 23 0z m24 -28 c-11 -21 -30
-27 -30 -9 0 5 5 7 10 4 6 -3 10 1 10 9 0 9 5 16 10 16 7 0 7 -6 0 -20z m59
-25 c0 -5 -4 -3 -9 5 -5 8 -9 22 -9 30 0 16 17 -16 18 -35z m-32 3 c-3 -7 -5
-2 -5 12 0 14 2 19 5 13 2 -7 2 -19 0 -25z m270 17 c-4 -8 -2 -17 3 -20 5 -3
10 3 12 12 3 16 5 15 10 -3 4 -15 1 -21 -11 -21 -9 0 -19 5 -23 10 -6 10 0 37
9 37 3 0 3 -7 0 -15z m-380 -2 c-4 -3 0 -15 10 -25 9 -10 12 -18 6 -18 -5 0
-18 9 -27 19 -13 15 -14 20 -4 24 19 8 22 8 15 0z m170 -15 c-3 -8 -6 -5 -6 6
-1 11 2 17 5 13 3 -3 4 -12 1 -19z m180 7 c0 -8 -7 -17 -16 -20 -13 -5 -14 -7
-1 -15 8 -6 10 -10 4 -10 -6 0 -18 8 -25 17 -11 13 -11 15 -1 9 9 -5 15 -1 19
13 6 24 20 28 20 6z m-103 -10 c-4 -8 -2 -15 4 -15 6 0 7 -10 4 -22 -5 -22 -6
-21 -13 6 -5 16 -6 33 -3 38 9 14 14 9 8 -7z m47 -14 c-5 -25 -6 -25 -9 -3 -2
13 -8 19 -14 16 -6 -4 -8 -3 -5 3 13 21 34 10 28 -16z m192 22 c-13 -2 -23 -9
-23 -14 0 -6 -5 -7 -11 -3 -15 9 9 24 36 22 17 -1 17 -1 -2 -5z m-4578 -208
c20 -34 32 -45 51 -45 24 0 25 2 23 60 -1 33 0 63 4 66 11 11 77 -17 92 -39
21 -29 19 -100 -2 -126 -10 -11 -36 -27 -58 -34 -36 -13 -40 -18 -47 -57 -18
-102 -37 -138 -106 -197 -97 -82 -136 -97 -239 -90 -104 6 -175 38 -234 105
-74 85 -91 123 -96 220 l-5 87 72 17 c142 34 245 98 312 195 l30 44 88 -81
c49 -45 100 -101 115 -125z m4312 173 c-3 -7 -5 -2 -5 12 0 14 2 19 5 13 2 -7
2 -19 0 -25z m-137 12 c0 -5 -4 -10 -10 -10 -5 0 -10 5 -10 10 0 6 5 10 10 10
6 0 10 -4 10 -10z m-30 -4 c0 -3 -4 -8 -10 -11 -5 -3 -10 -1 -10 4 0 6 5 11
10 11 6 0 10 -2 10 -4z m84 -4 c3 -5 -1 -9 -9 -9 -8 0 -12 4 -9 9 3 4 7 8 9 8
2 0 6 -4 9 -8z m311 -13 c-4 -5 0 -9 7 -9 10 0 9 -3 -2 -11 -13 -9 -13 -10 0
-6 8 2 15 11 14 19 -1 7 9 15 21 16 13 1 22 -4 22 -13 0 -8 -9 -15 -19 -15
-10 0 -18 -5 -18 -11 0 -5 -15 -16 -32 -24 -38 -15 -137 -31 -126 -20 4 4 2
19 -3 33 -9 23 -8 24 8 11 15 -12 16 -12 10 5 -7 16 -5 17 9 5 10 -8 12 -15 5
-17 -14 -5 -15 -32 -1 -32 6 0 10 5 10 10 0 6 6 10 14 8 8 -2 15 2 14 7 0 6
-4 9 -9 8 -4 -2 -6 4 -3 12 5 12 10 10 26 -8 19 -22 19 -22 13 -1 -3 14 1 28
10 38 17 16 40 13 30 -5z m-3797 -33 c31 -43 78 -92 115 -118 17 -13 17 -15 1
-47 -15 -31 -16 -37 -3 -60 25 -45 99 -37 99 10 0 16 6 15 56 -11 30 -16 73
-35 95 -41 26 -8 38 -17 35 -25 -3 -8 -1 -16 4 -19 11 -7 -13 -76 -41 -118
-58 -85 -114 -125 -227 -162 -59 -19 -125 -16 -219 11 -98 27 -223 177 -223
268 0 86 31 131 164 240 26 21 59 56 73 77 14 22 29 39 33 39 3 0 21 -20 38
-44z m3479 9 c0 -8 -6 -15 -13 -15 -8 0 -11 6 -8 15 4 8 9 15 13 15 4 0 8 -7
8 -15z m28 -5 c-5 -15 0 -23 19 -32 15 -6 29 -8 33 -4 9 9 -18 27 -29 20 -4
-3 -8 0 -8 5 0 16 26 13 44 -4 18 -18 27 -19 20 -2 -3 8 4 13 18 14 16 2 19 0
9 -6 -8 -5 -11 -16 -8 -25 5 -13 -1 -16 -31 -15 -39 1 -130 26 -100 28 9 1 20
10 23 21 3 11 9 20 11 20 3 0 3 -9 -1 -20z m-1496 -174 c28 -33 48 -63 45 -68
-11 -18 9 -69 32 -85 23 -14 26 -14 43 1 17 15 21 15 63 -9 35 -19 167 -55
204 -55 9 0 3 -37 -8 -48 -14 -14 -57 -16 -92 -2 -23 8 -28 6 -50 -33 -47 -80
-129 -134 -236 -157 -104 -22 -241 26 -314 112 -60 70 -89 139 -94 228 l-4 78
38 12 c60 19 223 119 258 158 l18 21 24 -47 c13 -26 46 -74 73 -106z m1638
139 c0 -8 -6 -15 -14 -15 -14 0 -17 12 -6 23 11 11 20 8 20 -8z m-6185 -36
c59 -23 94 -44 130 -79 l50 -48 -7 -136 c-4 -75 -4 -136 0 -136 5 0 17 7 27
17 10 9 18 12 18 6 0 -5 -21 -24 -46 -43 -59 -42 -99 -98 -119 -165 -14 -51
-18 -55 -79 -84 -69 -34 -157 -59 -303 -87 -7 -1 -29 6 -50 17 -20 10 -40 19
-42 19 -7 0 50 -50 75 -68 16 -10 15 -11 -6 -1 -95 45 -171 136 -211 256 -33
99 -25 216 21 309 73 150 234 252 398 253 47 1 83 -7 144 -30z m5888 -39 c0
-33 -4 -60 -8 -60 -12 0 -83 52 -100 72 -11 14 -7 18 30 31 75 27 78 25 78
-43z m-5080 -25 c34 -17 38 -33 13 -42 -15 -5 -80 -33 -117 -51 -13 -6 1 97
14 114 12 14 31 9 90 -21z m-458 -26 c52 -14 181 -17 226 -5 l34 8 -7 -86 c-9
-102 -6 -105 81 -81 97 27 88 33 178 -107 44 -70 100 -155 124 -189 23 -34 42
-65 42 -69 0 -4 -35 -10 -77 -14 -43 -3 -91 -9 -108 -12 -30 -5 -30 -4 -89
121 -85 181 -127 208 -283 185 -46 -7 -86 -12 -90 -11 -5 0 -11 22 -14 49 -4
27 -25 91 -47 141 -25 57 -36 91 -27 87 8 -3 33 -10 57 -17z m6462 -72 c69
-26 136 -70 136 -90 0 -7 -13 -26 -30 -43 l-29 -32 -138 3 c-123 2 -142 0
-171 -17 -18 -11 -38 -25 -45 -32 -48 -47 -80 -59 -146 -58 -72 2 -79 -1 -104
-38 -26 -37 -21 -40 22 -17 36 20 41 20 66 7 55 -30 57 -80 5 -107 -20 -10
-30 -8 -67 14 -24 14 -46 23 -49 20 -13 -12 -44 -152 -39 -171 6 -21 6 -21 -9
-2 -19 24 -21 129 -5 208 24 113 118 249 215 310 39 25 137 63 184 72 48 9
138 -4 204 -27z m-2770 -89 c15 -109 77 -229 147 -286 l29 -24 -67 -49 c-93
-67 -104 -66 -147 18 -25 50 -113 135 -169 164 -12 7 -23 13 -24 14 -2 1 19
24 45 51 27 28 59 70 73 94 24 43 58 70 90 70 12 0 18 -13 23 -52z m-3824 8
c0 -2 -7 -9 -15 -16 -13 -11 -14 -10 -9 4 5 14 24 23 24 12z m1770 -30 c0 -3
-14 -58 -31 -123 -16 -65 -33 -155 -36 -199 -5 -77 -4 -86 26 -149 17 -37 31
-71 31 -76 0 -5 -26 9 -59 31 -32 22 -107 60 -167 85 -134 57 -138 59 -142 76
-2 11 59 53 110 77 4 2 14 -12 24 -30 21 -40 31 -48 67 -48 l28 0 -7 68 c-5
57 -4 70 9 75 22 8 71 84 92 142 10 28 23 56 28 63 9 11 27 17 27 8z m3756
-46 c68 -31 137 -88 160 -131 20 -39 18 -56 -3 -36 -31 27 -192 116 -230 126
-61 17 -126 13 -205 -14 -86 -29 -78 -28 -78 -11 0 22 66 74 107 85 100 26
163 21 249 -19z m-5536 1 c0 -6 -4 -13 -10 -16 -5 -3 -10 1 -10 9 0 9 5 16 10
16 6 0 10 -4 10 -9z m60 -33 c0 -16 -3 -19 -11 -11 -6 6 -8 16 -5 22 11 17 16
13 16 -11z m322 -95 c22 -27 30 -53 13 -47 -40 16 -271 -82 -283 -119 -5 -12
-8 -44 -7 -72 0 -46 2 -50 28 -55 27 -5 26 -6 -25 -29 -29 -14 -61 -31 -70
-39 -21 -17 -23 -14 -63 121 -23 79 -24 90 -11 109 64 91 370 187 418 131z
m4958 -51 c19 -50 39 -81 80 -123 61 -62 106 -79 204 -79 l56 0 0 -52 c0 -29
-12 -94 -27 -146 -23 -82 -31 -97 -67 -128 -115 -99 -270 -127 -398 -72 -50
21 -144 112 -172 165 -19 38 -35 143 -29 198 4 35 1 43 -26 63 -26 19 -31 29
-31 66 0 59 29 96 76 96 37 0 43 -15 24 -64 -8 -21 -6 -27 10 -36 33 -18 49
-11 77 31 17 25 51 54 93 79 37 21 72 46 80 54 7 9 15 16 19 16 3 0 17 -30 31
-68z m-1959 31 c16 -47 -38 -87 -87 -64 -28 12 -49 52 -41 75 9 23 119 14 128
-11z m-211 -37 c0 -34 44 -82 86 -96 50 -17 139 -8 172 17 15 11 33 38 41 59
8 21 16 40 17 42 1 2 28 -9 60 -24 58 -27 134 -97 160 -146 14 -27 14 -28 -33
-52 -60 -30 -86 -58 -112 -118 l-20 -48 -166 -1 c-91 -1 -170 -2 -176 -3 -5
-1 -24 28 -42 64 -38 78 -97 120 -177 128 -35 3 -50 9 -50 19 0 25 107 128
162 156 64 33 78 34 78 3z m-680 -120 c0 -8 -9 -24 -21 -37 -18 -21 -20 -22
-15 -4 6 19 5 19 -8 2 -18 -24 -69 -20 -74 6 -7 33 5 49 26 36 15 -9 25 -8 48
3 32 16 44 14 44 -6z m-2011 -10 c-2 -2 -17 -6 -34 -9 l-30 -6 30 13 c26 12
47 13 34 2z m2179 -30 c33 -24 63 -49 66 -54 3 -6 -10 -29 -30 -53 -19 -23
-42 -58 -49 -77 l-15 -34 -287 7 c-159 4 -290 9 -293 12 -9 8 44 96 87 143 23
26 62 57 85 67 l41 20 24 -48 c27 -54 68 -79 132 -79 79 0 145 47 158 112 3
16 9 28 13 28 4 0 35 -20 68 -44z m1676 29 c6 -17 -3 -47 -18 -57 -17 -12 -71
-9 -84 4 -16 16 -15 55 1 61 29 12 95 7 101 -8z m-199 -57 c28 -58 60 -79 123
-80 71 0 117 18 151 59 l29 35 63 -54 c37 -31 74 -72 87 -98 l22 -45 -37 -8
c-21 -5 -52 -6 -69 -3 -18 2 -37 -1 -43 -7 -8 -8 -11 -8 -11 1 0 6 -10 12 -22
12 -13 0 -79 4 -148 9 -69 5 -140 10 -157 10 -26 1 -33 5 -33 21 0 33 -30 85
-61 106 -16 10 -29 21 -29 24 0 6 101 60 110 60 3 -1 14 -19 25 -42z m-3374
-44 c19 -23 -6 -39 -126 -76 -55 -17 -138 -48 -183 -70 -73 -34 -238 -88 -312
-102 -14 -2 -49 -16 -77 -30 -63 -31 -83 -33 -83 -7 0 21 57 77 118 115 54 34
304 132 383 151 54 12 157 26 250 34 9 0 23 -6 30 -15z m5143 -67 c14 -46 39
-102 56 -125 16 -23 30 -44 30 -46 0 -2 -25 -18 -55 -35 -85 -48 -97 -91 -39
-139 23 -19 35 -36 32 -48 -3 -17 -12 -19 -84 -16 -68 3 -88 0 -124 -18 -40
-20 -52 -22 -139 -15 -136 10 -191 20 -166 29 11 4 52 21 90 39 52 23 85 31
130 32 64 0 93 12 138 54 44 41 51 59 58 166 5 80 33 205 45 205 2 0 14 -37
28 -83z m-4469 41 c57 -15 188 -83 230 -119 46 -40 84 -105 87 -149 3 -34 2
-35 -46 -47 -31 -8 -69 -10 -100 -5 -43 6 -53 12 -65 37 -8 17 -18 37 -22 45
-10 22 -91 16 -185 -15 -59 -20 -107 -28 -189 -32 l-110 -5 -47 32 c-27 18
-57 44 -67 59 -43 60 -48 172 -8 179 9 2 29 -11 45 -29 l29 -33 49 31 c27 16
64 36 82 43 74 29 222 33 317 8z m1581 -29 c50 -30 68 -61 60 -104 -8 -40 -42
-68 -105 -85 -132 -35 -268 68 -205 158 43 62 174 78 250 31z m922 -6 c69 -56
66 -114 -6 -156 -49 -29 -154 -28 -209 1 -71 37 -85 97 -34 146 38 36 73 46
149 42 52 -3 70 -9 100 -33z m-4295 -40 c-7 -2 -19 -2 -25 0 -7 3 -2 5 12 5
14 0 19 -2 13 -5z m5277 -113 c6 -27 18 -54 26 -61 8 -6 14 -18 14 -27 0 -10
-8 -7 -27 12 -15 15 -54 42 -87 61 -36 20 -54 36 -46 38 15 5 90 23 102 26 3
0 11 -21 18 -49z m820 -30 c0 -42 -60 -87 -98 -74 -32 11 -43 44 -14 44 10 0
36 15 58 34 44 38 54 37 54 -4z m-5083 -37 c36 -32 73 -74 83 -94 39 -74 80
-73 80 3 0 48 19 57 59 29 38 -27 44 -49 29 -97 -10 -29 -22 -44 -49 -57 -34
-16 -37 -21 -42 -76 -9 -109 -69 -199 -177 -270 -53 -35 -59 -36 -145 -36 -78
0 -98 4 -146 27 -30 15 -82 52 -115 82 -54 49 -61 60 -77 122 -9 38 -18 86
-19 107 l-3 37 107 44 c139 57 209 101 283 175 33 34 61 61 63 61 2 0 33 -26
69 -57z m2957 22 c34 -44 87 -72 159 -83 95 -15 169 5 234 62 l47 41 140 -3
c78 -2 142 -5 143 -6 2 -1 -16 -23 -40 -48 -23 -25 -55 -73 -71 -106 -23 -49
-35 -62 -58 -67 -15 -4 -31 -11 -34 -17 -3 -5 -20 -18 -37 -28 l-30 -19 -51
46 c-72 65 -151 98 -280 118 -146 22 -197 15 -278 -37 -35 -22 -85 -60 -112
-84 -37 -34 -56 -44 -82 -44 -47 0 -58 -30 -51 -137 6 -81 6 -83 -22 -105 -49
-40 -65 -74 -65 -142 1 -69 19 -113 61 -146 l28 -22 0 -323 c0 -353 0 -350 57
-350 28 0 32 -4 43 -48 6 -26 20 -57 31 -68 27 -30 101 -80 132 -89 26 -7 25
-8 -13 -15 -69 -13 -76 -21 -73 -72 2 -37 9 -50 31 -67 26 -19 42 -21 187 -21
141 0 160 2 179 19 31 28 28 85 -5 117 -20 19 -41 25 -92 30 -60 5 -55 6 43 8
139 2 225 15 295 47 72 33 115 67 145 115 29 45 49 43 65 -7 7 -21 36 -56 75
-90 35 -31 66 -68 70 -81 l6 -26 103 5 c68 4 113 11 136 23 21 11 62 18 114
20 92 4 197 26 265 56 98 43 176 150 187 256 9 89 5 101 -148 432 -21 46 -36
86 -34 88 2 3 19 12 38 21 18 10 47 39 65 65 l32 48 38 -49 c75 -94 162 -292
289 -652 26 -74 77 -196 114 -270 37 -74 71 -146 75 -160 4 -14 37 -90 73
-170 63 -141 97 -240 83 -240 -3 0 -43 33 -87 73 -227 207 -485 309 -779 310
-183 0 -332 -37 -510 -126 -214 -107 -387 -276 -501 -492 -81 -152 -144 -364
-144 -486 0 -26 -3 -60 -6 -77 l-6 -31 -868 -1 -867 -1 -7 38 c-3 21 -6 56 -6
78 0 55 -24 173 -56 275 -56 179 -159 343 -311 492 -179 177 -309 246 -573
304 -102 23 -131 25 -250 21 -213 -8 -436 -77 -592 -183 -43 -30 -81 -54 -83
-54 -3 0 -21 32 -40 70 -40 79 -99 145 -151 166 -19 8 -66 14 -111 14 -94 0
-146 -21 -190 -74 l-30 -38 -7 39 c-14 75 -49 165 -82 208 l-33 44 56 46 c72
59 111 79 215 109 144 42 236 47 911 49 l639 2 19 24 c19 23 44 97 120 361 64
222 127 369 211 493 22 32 49 79 59 103 16 35 30 49 66 66 75 35 126 138 108
219 -4 17 -22 48 -40 68 -37 41 -38 43 -36 129 l1 62 425 0 c344 0 425 -2 425
-13 0 -18 46 -60 90 -83 25 -13 57 -18 115 -18 94 0 135 15 198 73 l44 40 139
4 c76 1 173 4 215 5 l77 2 26 -35z m1159 -48 c79 -39 141 -97 171 -161 14 -30
22 -76 13 -76 -2 0 -35 11 -73 24 -109 37 -249 56 -409 57 -162 1 -177 7 -151
56 27 52 96 106 176 137 8 3 56 4 106 3 83 -3 99 -6 167 -40z m-3247 -54 c68
-36 84 -52 104 -98 21 -48 46 -73 61 -58 6 6 18 25 27 44 23 46 46 47 87 6 39
-39 45 -78 20 -126 -14 -28 -58 -51 -96 -51 -11 0 -19 -7 -19 -15 0 -36 -45
-129 -85 -173 -33 -36 -61 -55 -116 -77 -191 -77 -382 -1 -471 189 -30 65 -33
79 -33 166 0 155 -8 146 142 152 111 5 138 10 208 36 99 38 111 38 171 5z
m4514 3 c0 -11 -19 -15 -25 -6 -3 5 1 10 9 10 9 0 16 -2 16 -4z m-964 -61 c4
-9 19 -15 35 -15 33 0 32 0 19 -34 -14 -39 -48 -34 -66 9 -7 19 -14 39 -14 45
0 15 20 12 26 -5z m-1351 -44 c112 -23 169 -48 211 -93 16 -17 24 -28 18 -25
-16 9 -194 47 -221 47 -28 0 -28 3 -3 -56 11 -26 18 -50 14 -53 -3 -3 -37 27
-74 68 -37 40 -72 72 -78 70 -5 -2 -25 -24 -43 -48 -22 -29 -54 -55 -92 -73
-60 -30 -127 -41 -134 -22 -4 11 161 151 206 174 27 14 69 28 88 29 6 1 55 -8
108 -18z m1685 -120 c41 -5 108 -13 149 -17 l73 -6 -7 -67 c-12 -120 -7 -114
-89 -106 -71 6 -150 16 -301 38 l-80 12 -32 60 c-44 81 -43 95 5 95 24 0 47 8
66 23 l29 23 56 -22 c31 -12 90 -27 131 -33z m-1171 23 c-14 -18 -24 -11 -15
11 3 9 11 13 16 10 8 -5 7 -11 -1 -21z m-4765 -3 c10 -11 22 -37 26 -58 18
-77 -69 -203 -140 -203 -44 0 -98 32 -105 63 -9 34 12 147 31 168 12 14 31 19
68 19 29 0 59 7 70 15 25 19 29 19 50 -4z m5146 -8 c8 -4 40 -12 70 -18 l55
-11 -97 -8 c-100 -9 -248 0 -248 13 0 4 19 8 42 9 48 2 66 12 21 12 -17 0 -30
5 -30 13 0 10 19 11 86 5 47 -5 93 -11 101 -15z m1291 -32 c24 -25 29 -37 29
-80 0 -88 -66 -135 -164 -117 -50 9 -59 32 -46 109 6 34 13 69 16 78 6 23 42
38 92 38 35 1 49 -5 73 -28z m-5819 -56 c22 -25 46 -45 55 -45 8 0 13 -7 11
-17 -5 -28 -65 -29 -94 -2 -33 31 -45 109 -17 109 3 0 23 -20 45 -45z m830
-31 c3 -48 3 -48 -42 -70 -25 -12 -47 -20 -48 -19 -2 2 7 23 21 47 14 24 30
61 37 82 15 48 29 32 32 -40z m2708 16 c56 -88 139 -141 252 -160 l65 -12 6
-66 c7 -70 21 -92 61 -92 25 0 86 -41 86 -57 0 -23 -39 -35 -72 -24 -17 6 -32
11 -34 11 -1 0 -13 -19 -27 -43 -33 -56 -124 -141 -173 -162 -69 -29 -141 -36
-217 -20 -86 18 -138 48 -204 118 -85 89 -100 172 -61 335 l22 93 56 15 c101
28 136 44 170 79 19 19 35 35 36 35 1 0 16 -22 34 -50z m977 -25 l252 0 5 -30
c3 -16 10 -70 16 -119 5 -49 14 -94 19 -99 19 -19 46 0 68 46 26 53 52 61 77
25 50 -72 -27 -180 -117 -165 -30 5 -35 1 -77 -56 -64 -88 -113 -121 -206
-142 -84 -19 -135 -16 -223 10 -71 22 -160 108 -186 180 -23 62 -42 85 -70 85
-12 0 -34 9 -49 21 -32 25 -36 84 -7 120 l19 24 26 -58 c13 -31 27 -57 30 -57
11 0 27 42 41 112 27 132 18 120 78 111 28 -4 165 -8 304 -8z m-4987 -40 c16
-19 187 -124 269 -165 194 -97 442 -156 553 -133 52 11 54 10 80 -18 15 -16
32 -29 38 -29 7 0 4 -7 -5 -16 -8 -9 -24 -14 -34 -11 -10 2 -26 0 -35 -5 -49
-27 -255 8 -451 76 -99 34 -266 115 -362 175 -46 28 -87 51 -92 51 -16 0 23
-89 44 -99 11 -5 15 -10 8 -10 -18 -1 -113 60 -113 73 0 6 9 22 20 36 11 14
20 30 20 35 0 15 29 55 39 55 5 0 14 -7 21 -15z m1398 -123 l20 -27 -37 -1
c-51 -2 -81 -19 -81 -49 0 -33 21 -76 33 -68 6 4 7 -8 3 -32 -7 -35 -6 -37 13
-32 16 4 22 -2 31 -29 6 -18 10 -44 8 -56 -3 -21 -4 -21 -19 9 -12 22 -14 34
-6 42 6 6 8 11 3 11 -4 0 -14 -7 -23 -16 -12 -11 -26 -14 -54 -9 -35 6 -39 5
-39 -14 0 -14 -6 -21 -20 -21 -13 0 -20 -7 -20 -20 0 -13 7 -20 20 -20 11 0
20 -4 20 -10 0 -5 -9 -10 -20 -10 -11 0 -20 5 -20 10 0 21 -38 10 -42 -12 -8
-46 1 -58 43 -58 33 0 39 3 40 23 l2 22 4 -22 c5 -27 -13 -63 -32 -63 -18 0
-20 -17 -2 -23 14 -5 12 -6 -73 -31 -50 -15 -150 -19 -150 -6 0 3 15 12 33 20
25 12 33 22 35 48 2 24 8 32 23 32 10 0 19 6 20 13 0 10 2 10 6 0 8 -21 22
-15 16 7 -3 11 -11 20 -18 20 -8 0 -17 9 -20 20 -3 11 -15 20 -26 20 -16 0
-19 7 -19 40 0 34 -3 40 -26 46 -25 6 -24 8 21 25 27 10 53 15 59 12 6 -3 8
-3 5 1 -3 3 9 22 27 42 29 30 34 42 34 85 0 31 5 51 13 53 6 3 41 15 77 29 88
34 114 34 138 -1z m-313 -72 c10 -32 -3 -55 -40 -73 -50 -24 -73 -21 -87 8
-14 32 -1 48 57 69 54 20 63 19 70 -4z m619 -96 c10 -4 16 -18 16 -36 0 -43
25 -83 67 -109 21 -12 39 -23 41 -24 1 -1 -25 -80 -58 -175 -33 -95 -60 -180
-60 -189 -1 -9 -7 -29 -13 -45 l-13 -29 -37 51 c-43 58 -121 111 -189 126
l-46 11 37 110 c35 105 114 248 158 287 26 23 69 33 97 22z m166 -9 c0 -8 -5
-26 -12 -40 -15 -33 -42 -29 -46 8 -3 21 2 29 20 36 32 14 38 13 38 -4z m-396
-32 c-9 -36 -12 -39 -20 -19 -7 20 1 46 16 46 6 0 8 -11 4 -27z m-151 -80 c-7
-2 -19 -2 -25 0 -7 3 -2 5 12 5 14 0 19 -2 13 -5z m3313 -112 c-12 -8 -51 -39
-88 -69 l-68 -54 -39 31 c-22 17 -55 38 -75 46 -38 16 -45 29 -23 42 7 4 23
23 36 41 19 28 28 32 65 32 28 0 55 8 76 23 l33 22 52 -50 c50 -49 51 -50 31
-64z m709 20 l16 -32 -53 27 c-29 14 -55 28 -57 30 -2 2 7 16 20 32 l24 29 17
-28 c9 -14 24 -41 33 -58z m-4690 49 c4 -7 -3 -8 -22 -4 -38 9 -42 14 -10 14
14 0 29 -5 32 -10z m152 -22 c-3 -8 -6 -5 -6 6 -1 11 2 17 5 13 3 -3 4 -12 1
-19z m-84 5 c-7 -2 -19 -2 -25 0 -7 3 -2 5 12 5 14 0 19 -2 13 -5z m3023 -70
c18 -16 34 -31 34 -35 0 -15 -72 -50 -82 -40 -9 9 -1 102 9 102 2 0 20 -12 39
-27z m1267 -29 c10 -10 -14 -64 -33 -74 -31 -17 -68 -11 -84 12 -29 41 -21 57
32 61 26 2 54 4 63 5 9 1 18 -1 22 -4z m265 -43 c124 -63 192 -154 192 -259 0
-63 -9 -83 -63 -140 -50 -51 -125 -82 -222 -89 l-70 -6 -13 108 c-7 59 -11
109 -9 111 2 2 34 10 73 18 104 22 124 32 124 59 0 32 -33 61 -62 54 -13 -3
-59 -15 -103 -27 -64 -17 -94 -20 -150 -14 -153 16 -230 -5 -311 -84 -38 -37
-54 -33 -54 15 0 13 -12 48 -27 79 l-28 56 54 49 c53 50 136 99 166 99 11 0
15 -11 15 -38 0 -94 125 -146 227 -93 50 25 71 53 80 105 l6 39 57 -6 c35 -3
80 -17 118 -36z m-1130 -33 c6 -30 -42 -68 -86 -68 -37 0 -40 2 -44 30 -6 37
6 47 57 53 59 6 69 4 73 -15z m167 -12 c62 -29 107 -66 144 -120 46 -67 54
-103 36 -163 -28 -94 -134 -164 -252 -167 l-57 -1 -13 85 c-7 47 -12 91 -11
99 2 8 38 26 82 40 92 30 113 52 77 82 -30 24 -45 24 -135 -3 -66 -19 -77 -20
-107 -8 l-33 14 55 14 c64 16 111 56 129 113 7 21 18 39 24 39 6 0 34 -11 61
-24z m-398 -39 c10 -35 22 -53 45 -67 l31 -18 -60 5 c-80 7 -121 -8 -188 -69
l-55 -50 0 70 c0 68 1 71 32 94 53 37 152 88 167 85 8 -1 20 -24 28 -50z
m-2431 -132 c45 -26 82 -70 70 -82 -9 -9 -356 -10 -356 -1 0 15 65 80 99 99
48 26 126 20 187 -16z m2499 -59 c43 -18 66 -63 73 -141 5 -72 -1 -80 -81 -97
-48 -10 -60 -9 -97 7 -97 44 -127 124 -69 190 45 51 111 67 174 41z m952 -2
c29 -8 43 -52 43 -135 0 -90 -16 -109 -95 -109 -66 0 -100 16 -144 65 -35 40
-37 54 -17 93 38 72 128 109 213 86z m1421 -138 c50 -26 91 -80 140 -186 68
-143 74 -167 31 -113 -19 23 -45 58 -59 79 -14 20 -45 57 -69 83 -24 25 -39
39 -33 30 7 -9 8 -20 4 -24 -4 -5 -1 -5 6 -1 6 4 12 4 12 1 0 -10 -22 -29 -52
-44 -16 -8 -28 -19 -28 -25 0 -14 -73 -76 -80 -68 -3 4 -22 15 -42 26 -34 17
-138 127 -138 146 0 28 184 109 248 110 18 0 45 -6 60 -14z m-2250 -288 c3
-17 -9 -18 -142 -18 -86 0 -147 4 -151 10 -16 25 11 30 148 28 126 -3 142 -5
145 -20z m-4216 -39 c21 -28 35 -55 32 -60 -3 -5 -35 -9 -71 -9 l-65 0 7 28
c11 44 36 92 49 92 6 0 28 -23 48 -51z m6395 -146 c107 -140 177 -330 143
-394 -19 -34 -37 -22 -50 34 -17 68 -47 147 -109 282 -28 61 -51 116 -51 123
0 21 34 -2 67 -45z m-5931 -18 c33 -33 61 -98 69 -160 6 -45 3 -55 -24 -95
-45 -68 -96 -120 -118 -120 -18 0 -19 8 -16 198 1 108 3 198 3 200 0 1 14 2
30 2 20 0 40 -9 56 -25z m-418 -37 l-3 -53 -72 -3 -73 -3 0 56 0 55 76 0 75 0
-3 -52z m236 20 c9 -35 7 -336 -3 -342 -4 -3 -17 5 -28 17 -80 86 -85 216 -13
318 26 35 36 36 44 7z m1266 6 c215 -40 412 -145 556 -296 130 -135 197 -242
250 -399 37 -112 50 -182 58 -311 l5 -88 -100 0 c-63 0 -112 5 -133 14 -58 24
-103 101 -126 213 -27 137 -141 309 -263 400 -339 252 -780 164 -1014 -202
-44 -69 -79 -166 -97 -269 -10 -55 -23 -97 -36 -114 -27 -34 -88 -72 -117 -72
-25 0 -28 5 -13 23 6 7 20 24 31 40 11 15 24 25 29 22 4 -3 6 4 3 15 -4 15 0
20 17 20 17 0 20 4 15 21 -5 16 -2 22 16 26 21 6 21 7 3 21 -18 13 -18 14 4 7
21 -6 23 -4 20 22 -2 20 -9 28 -23 28 -48 1 -81 17 -104 51 -29 43 -89 91
-130 105 -38 13 -38 21 -4 101 84 196 191 323 381 452 106 72 158 98 262 131
168 55 353 69 510 39z m4150 -13 c98 -26 258 -99 345 -160 139 -95 312 -307
364 -446 31 -82 28 -95 -26 -135 -56 -41 -107 -131 -105 -185 1 -18 13 -59 27
-91 16 -36 22 -61 16 -67 -15 -15 -78 2 -111 30 -40 34 -54 62 -80 164 -43
175 -155 351 -283 446 -132 97 -240 133 -397 133 -147 0 -263 -36 -387 -122
-141 -96 -270 -295 -302 -463 -13 -66 -20 -84 -50 -124 -41 -55 -89 -71 -213
-71 -80 0 -108 3 -108 13 0 6 9 77 19 157 30 225 89 373 217 544 135 179 358
325 579 380 93 23 110 24 265 22 111 -2 165 -8 230 -25z m-5903 -136 c-2 -165
-7 -179 -46 -129 -47 60 -48 212 0 263 43 46 47 32 46 -134z m253 -64 c0 -33
-5 -63 -11 -66 -5 -4 -41 -4 -80 0 l-69 7 0 43 c0 72 3 75 86 75 l74 0 0 -59z
m-5 -216 l0 -60 -65 -3 c-36 -1 -70 1 -77 6 -8 5 -10 26 -6 65 l6 58 71 -3 71
-3 0 -60z m218 -23 c15 -7 43 -12 62 -12 19 0 35 -3 35 -7 0 -5 -23 -46 -50
-93 -28 -47 -50 -92 -50 -101 0 -13 -12 -18 -47 -21 -27 -3 -51 -2 -54 1 -9 9
-21 306 -12 314 4 4 25 -10 47 -31 23 -21 54 -44 69 -50z m1273 -27 c88 -30
195 -95 225 -136 12 -17 19 -32 16 -35 -2 -3 -47 14 -98 36 -145 64 -175 72
-284 74 -86 1 -111 -3 -183 -27 -131 -45 -209 -119 -284 -267 -32 -63 -33 -69
-33 -185 0 -137 12 -183 76 -288 21 -37 38 -70 37 -74 -1 -4 10 -21 26 -38 32
-34 50 -65 39 -65 -18 0 -77 43 -122 88 -82 82 -141 234 -141 363 0 132 34
238 112 356 94 139 259 220 456 222 64 1 101 -5 158 -24z m4062 7 c60 -19 153
-75 187 -112 18 -20 18 -20 -31 -5 -254 80 -367 82 -522 9 -100 -48 -167 -117
-222 -230 -41 -84 -44 -94 -48 -194 -5 -130 12 -207 68 -302 23 -39 37 -73 34
-82 -26 -67 -145 87 -175 225 -16 75 -6 251 18 320 63 182 219 332 389 373 87
21 230 20 302 -2z m-5550 -154 l-3 -63 -72 -3 -73 -3 0 59 c0 32 3 62 7 65 3
4 37 7 75 7 l69 0 -3 -62z m1463 -112 c113 -57 163 -138 163 -266 -1 -132 -53
-213 -172 -268 -46 -21 -65 -24 -126 -20 -118 8 -204 68 -254 177 -29 63 -34
149 -12 217 51 163 242 239 401 160z m4066 -2 c63 -30 116 -89 137 -152 22
-64 20 -176 -3 -228 -47 -103 -163 -179 -273 -178 -201 2 -338 239 -251 435
62 138 242 195 390 123z m-5219 -78 c93 -48 119 -170 49 -233 -60 -55 -74 -57
-344 -58 l-253 0 -42 42 c-38 38 -42 47 -46 101 -5 68 12 109 57 141 26 18 46
21 207 24 246 5 337 1 372 -17z m6494 -11 c69 -46 89 -126 50 -202 -34 -65
-59 -73 -226 -73 -140 0 -148 1 -184 25 -66 44 -102 131 -78 188 26 63 66 81
191 88 150 8 203 3 247 -26z m-3688 -381 l1069 -1 12 -39 c36 -122 113 -214
258 -309 31 -21 55 -40 53 -43 -7 -7 -2829 -2 -2836 5 -3 3 0 8 6 10 6 2 45
26 87 53 92 61 154 135 210 252 32 68 45 86 57 80 8 -4 496 -8 1084 -8z"/>
<path d="M7105 8903 c-37 -56 -29 -143 13 -143 13 0 13 2 -1 18 -24 27 -21 59
9 89 19 19 32 24 54 20 24 -5 29 -2 33 18 4 24 2 25 -43 25 -41 0 -50 -4 -65
-27z"/>
<path d="M5732 9063 c-34 -30 -37 -59 -8 -88 31 -31 49 -32 77 -4 34 34 8 109
-37 109 -6 0 -21 -8 -32 -17z"/>
<path d="M6045 8985 c-31 -30 -32 -58 -3 -85 26 -24 46 -25 76 -4 29 20 29 64
-1 92 -30 28 -42 28 -72 -3z"/>
<path d="M5746 8875 c-18 -18 -21 -70 -7 -108 15 -38 70 -96 112 -118 45 -22
97 -24 142 -5 38 15 94 76 103 110 7 31 -11 64 -39 71 -12 2 -74 16 -137 30
-63 14 -124 28 -136 31 -13 3 -28 -1 -38 -11z"/>
<path d="M3922 9014 c-45 -31 -19 -114 36 -114 23 0 52 35 52 63 0 18 -42 67
-57 67 -5 0 -19 -7 -31 -16z"/>
<path d="M3620 8890 c-26 -26 -25 -46 5 -75 29 -30 56 -32 78 -7 53 58 -28
137 -83 82z"/>
<path d="M3980 8860 c-40 -12 -253 -120 -272 -137 -39 -36 -9 -96 65 -132 52
-25 88 -26 151 -5 122 42 186 187 115 262 -22 24 -22 24 -59 12z"/>
<path d="M4566 8603 c-4 -9 -3 -20 1 -24 4 -4 9 3 9 17 2 28 -1 31 -10 7z"/>
<path d="M4589 8564 c-1 -5 -2 -20 -2 -34 -2 -21 -7 -25 -34 -25 -18 0 -33 -3
-33 -7 0 -5 35 -8 78 -8 42 0 92 -4 110 -9 17 -5 32 -6 32 -1 0 5 -24 16 -54
24 -34 10 -62 26 -75 42 -12 15 -21 23 -22 18z"/>
<path d="M8435 8160 c-3 -5 0 -10 7 -10 9 0 9 -3 -2 -10 -8 -5 -13 -10 -10
-11 3 0 12 -2 20 -4 10 -1 16 6 16 21 2 24 -19 33 -31 14z"/>
<path d="M2830 8119 c0 -5 5 -7 10 -4 6 3 10 8 10 11 0 2 -4 4 -10 4 -5 0 -10
-5 -10 -11z"/>
<path d="M2780 8104 c0 -8 5 -12 10 -9 6 4 8 11 5 16 -9 14 -15 11 -15 -7z"/>
<path d="M2560 8069 c0 -5 5 -7 10 -4 6 3 10 8 10 11 0 2 -4 4 -10 4 -5 0 -10
-5 -10 -11z"/>
<path d="M2585 8050 c4 -6 10 -9 13 -6 3 3 12 0 20 -7 13 -10 14 -9 10 3 -2 8
-15 17 -27 18 -16 3 -21 0 -16 -8z"/>
<path d="M2604 8022 c3 -6 1 -14 -5 -17 -5 -4 -8 -13 -5 -20 3 -8 0 -16 -7
-19 -7 -2 1 -5 16 -5 19 -1 26 3 21 11 -5 8 0 9 14 6 23 -6 32 15 12 27 -5 3
-10 1 -10 -4 0 -6 -10 -11 -21 -11 -17 0 -19 3 -10 14 9 11 9 16 0 22 -7 4 -9
3 -5 -4z"/>
<path d="M2383 8003 c-7 -3 -13 -9 -13 -15 0 -6 6 -8 14 -5 8 3 16 1 18 -5 2
-5 10 -2 18 8 11 13 12 16 1 10 -7 -5 -16 -4 -20 1 -3 6 -12 8 -18 6z"/>
<path d="M2676 7993 c-8 -20 -5 -22 15 -14 14 5 15 8 4 18 -10 10 -15 9 -19
-4z"/>
<path d="M2485 7991 c-3 -5 -2 -12 3 -15 5 -3 9 1 9 9 0 17 -3 19 -12 6z"/>
<path d="M2562 7980 c0 -14 2 -19 5 -12 2 6 2 18 0 25 -3 6 -5 1 -5 -13z"/>
<path d="M7641 8074 c0 -11 3 -14 6 -6 3 7 2 16 -1 19 -3 4 -6 -2 -5 -13z"/>
<path d="M7364 8009 c-2 -3 11 -19 29 -35 18 -16 26 -22 20 -14 -19 21 -16 35
4 19 14 -12 16 -12 11 1 -3 9 4 20 16 27 19 11 15 13 -27 10 -27 -1 -51 -5
-53 -8z"/>
<path d="M7507 7859 c18 -18 35 -31 37 -28 3 3 -12 18 -32 33 l-37 29 32 -34z"/>
<path d="M6870 7380 c-6 -11 -8 -20 -6 -20 3 0 10 9 16 20 6 11 8 20 6 20 -3
0 -10 -9 -16 -20z"/>
<path d="M5380 8002 c-18 -14 -21 -25 -16 -45 13 -55 55 -72 96 -39 18 14 21
25 16 45 -13 55 -55 72 -96 39z"/>
<path d="M5717 8002 c-23 -25 -21 -58 4 -83 32 -32 89 -7 89 40 -1 56 -58 82
-93 43z"/>
<path d="M5542 7843 c-110 -4 -113 -4 -122 -29 -21 -54 21 -128 93 -163 101
-49 223 -1 263 105 17 44 17 45 -6 69 -19 20 -32 25 -69 23 -25 -1 -97 -4
-159 -5z m102 -110 c-24 -17 -85 -17 -109 1 -18 13 -12 14 53 13 63 -1 71 -3
56 -14z"/>
<path d="M8507 8099 c-6 -22 6 -25 22 -5 9 10 8 15 -3 19 -8 3 -16 -2 -19 -14z"/>
<path d="M3602 7888 c-29 -29 3 -98 46 -98 24 0 52 31 52 57 0 42 -68 71 -98
41z"/>
<path d="M3317 7792 c-20 -22 -22 -65 -4 -80 25 -20 55 -23 71 -7 22 22 20 61
-4 85 -25 25 -42 25 -63 2z"/>
<path d="M3640 7723 c-19 -9 -80 -32 -135 -52 -95 -34 -100 -38 -103 -67 -9
-92 140 -149 246 -95 86 44 127 147 82 204 -24 30 -40 32 -90 10z"/>
<path d="M8352 8028 c-14 -14 -16 -28 -3 -28 5 0 11 9 14 20 6 23 5 24 -11 8z"/>
<path d="M4399 7847 c-9 -7 -21 -22 -28 -35 -26 -48 48 -99 87 -60 19 19 14
65 -10 88 -25 23 -28 24 -49 7z"/>
<path d="M4870 7720 c0 -5 11 -9 25 -8 14 1 25 6 25 10 0 4 -11 8 -25 8 -14 0
-25 -4 -25 -10z"/>
<path d="M4938 7703 c7 -3 16 -2 19 1 4 3 -2 6 -13 5 -11 0 -14 -3 -6 -6z"/>
<path d="M4447 7657 c-52 -52 52 -167 150 -167 95 1 204 124 149 170 -10 7
-62 12 -148 13 -117 2 -135 0 -151 -16z"/>
<path d="M6338 7833 c-23 -27 -28 -51 -18 -78 8 -20 16 -25 44 -25 25 0 38 6
46 19 15 30 12 66 -8 84 -24 22 -45 21 -64 0z"/>
<path d="M6356 7638 c-20 -28 -20 -45 2 -85 21 -39 56 -66 104 -82 31 -10 47
-10 91 3 74 22 107 49 107 90 0 44 -16 56 -74 56 -43 0 -137 17 -198 36 -10 3
-23 -4 -32 -18z"/>
<path d="M1990 7745 c-28 -34 -1 -105 40 -105 22 0 50 31 50 57 0 39 -67 76
-90 48z"/>
<path d="M1590 7370 c-11 -21 -2 -78 14 -83 5 -1 10 22 10 51 1 55 -6 65 -24
32z"/>
<path d="M2480 7725 c0 -16 22 -45 35 -45 18 0 30 19 19 30 -12 11 -54 23 -54
15z"/>
<path d="M7460 7330 c-24 -24 -25 -48 -4 -78 39 -57 121 3 94 69 -10 23 -19
29 -41 29 -16 0 -38 -9 -49 -20z"/>
<path d="M7411 7154 c-53 -45 -51 -127 7 -196 64 -76 189 -78 270 -5 42 39 37
45 -125 157 -56 38 -106 70 -112 70 -5 0 -23 -12 -40 -26z"/>
<path d="M7751 7154 c-26 -33 -27 -56 -3 -77 26 -24 49 -21 77 8 29 28 32 57
9 79 -23 24 -60 19 -83 -10z"/>
<path d="M2802 6828 c-17 -17 -15 -74 4 -92 21 -21 57 -20 77 2 24 26 21 49
-8 77 -26 27 -54 32 -73 13z"/>
<path d="M2496 6684 c-24 -23 -20 -67 8 -93 21 -20 27 -21 48 -10 45 24 50 58
13 94 -28 29 -47 31 -69 9z"/>
<path d="M2738 6603 c-116 -60 -128 -69 -128 -94 0 -35 56 -86 105 -95 105
-19 215 67 215 169 0 35 -32 87 -53 86 -7 0 -69 -30 -139 -66z"/>
<path d="M4535 6834 c-27 -8 -81 -18 -120 -21 -78 -6 -86 -10 -90 -47 -3 -22
7 -33 64 -71 75 -50 91 -53 130 -26 76 54 243 89 213 45 -13 -19 -150 -104
-192 -119 -51 -18 -110 -19 -145 -3 -15 7 -37 32 -51 60 -13 26 -28 48 -33 48
-6 0 -19 -13 -30 -29 -27 -37 -27 -92 -1 -150 27 -58 26 -67 -15 -117 -44 -54
-74 -119 -75 -161 0 -18 -15 -61 -34 -95 -42 -77 -68 -152 -101 -288 -26 -108
-54 -373 -42 -403 5 -14 21 -17 94 -17 126 0 129 -2 124 -56 -5 -63 11 -93 90
-169 l69 -67 64 3 c59 3 68 1 93 -22 99 -93 312 -117 447 -50 114 56 183 145
227 291 21 70 23 101 30 460 4 212 8 392 8 400 0 8 -2 106 -5 217 -7 229 1
213 -101 213 -47 0 -54 3 -67 28 -8 15 -34 46 -59 69 -38 35 -57 44 -135 62
-124 29 -291 36 -357 15z m449 -406 c3 -24 9 -81 13 -128 l8 -85 30 0 c27 0
32 5 43 43 14 43 28 50 61 32 24 -12 45 -64 37 -93 -11 -44 -54 -77 -101 -77
-39 0 -43 -2 -60 -41 -28 -61 -120 -141 -195 -168 -115 -42 -265 -19 -353 55
-50 42 -95 112 -113 176 -14 50 -20 58 -41 58 -16 0 -27 8 -34 26 -15 40 -2
67 28 61 32 -6 48 20 62 97 6 33 12 61 14 62 2 2 45 -6 97 -16 52 -11 129 -20
170 -20 81 0 236 25 285 46 43 19 43 18 49 -28z m-690 -373 c20 -47 44 -80 87
-119 32 -30 59 -57 59 -60 0 -2 -29 -25 -63 -50 -75 -53 -197 -180 -235 -245
-27 -45 -27 -45 -30 -18 -5 40 24 218 53 325 24 89 82 232 94 232 4 0 19 -29
35 -65z m866 -172 l0 -148 -43 50 c-41 48 -57 64 -105 102 l-23 18 41 43 c22
24 40 47 40 52 0 9 46 28 73 29 15 1 17 -12 17 -146z m-367 -112 c-12 -15 -36
-30 -58 -35 -34 -8 -41 -6 -57 14 -28 35 -23 58 15 64 111 19 137 8 100 -43z
m-224 -3 c20 -75 51 -98 133 -98 70 0 149 38 178 86 28 45 63 45 115 2 37 -32
82 -94 87 -120 2 -7 6 -15 9 -18 11 -10 25 -85 28 -147 3 -67 -5 -95 -20 -72
-5 8 -9 9 -9 3 0 -7 -11 -9 -25 -6 -16 3 -25 11 -25 23 0 12 -7 19 -20 19 -15
0 -20 7 -20 26 0 23 -4 26 -25 22 -13 -3 -22 -2 -20 3 3 4 -4 11 -16 14 -17 6
-19 9 -8 16 11 7 9 9 -7 9 -13 0 -25 -10 -33 -26 -18 -40 -22 -24 -6 21 8 22
14 52 15 68 0 15 3 27 6 27 4 0 17 -12 30 -27 13 -16 24 -23 24 -18 0 15 -70
85 -85 85 -7 0 -15 -7 -19 -15 -3 -8 -12 -15 -20 -15 -8 0 -23 -11 -34 -25
-11 -13 -22 -21 -26 -18 -3 3 -6 1 -6 -6 0 -7 -4 -10 -9 -6 -5 3 -12 1 -16 -5
-3 -5 -17 -10 -30 -10 -13 0 -27 5 -30 10 -4 6 -11 8 -16 5 -5 -4 -22 3 -38
14 -30 22 -95 40 -151 42 -21 1 -27 3 -15 6 24 6 54 42 55 66 0 12 -8 17 -25
17 -14 0 -25 5 -25 11 0 8 -4 8 -15 -1 -8 -6 -22 -10 -32 -8 -13 3 0 16 46 46
36 23 70 42 77 42 6 0 17 -19 23 -42z m-283 -223 c-3 -9 -11 -13 -16 -10 -8 5
-7 11 1 21 14 18 24 11 15 -11z m291 -49 l28 -25 -44 -83 c-51 -97 -71 -118
-117 -118 -25 0 -43 10 -74 38 -47 45 -52 79 -18 128 55 81 167 110 225 60z
m348 -6 c3 -5 1 -10 -4 -10 -6 0 -11 5 -11 10 0 6 2 10 4 10 3 0 8 -4 11 -10z"/>
<path d="M4457 6352 c-21 -24 -22 -56 -1 -77 24 -23 66 -15 83 16 13 24 13 29
-2 53 -21 31 -56 34 -80 8z"/>
<path d="M4796 6338 c-37 -52 -2 -121 52 -102 15 5 31 21 36 37 22 62 -52 117
-88 65z"/>
<path d="M4501 6176 c-23 -27 -7 -93 31 -133 78 -83 184 -93 260 -25 62 56 85
115 54 141 -7 6 -59 13 -114 16 -56 2 -127 7 -159 10 -48 6 -61 4 -72 -9z
m239 -101 c-34 -19 -124 -19 -140 0 -11 13 -1 15 76 15 82 -1 87 -2 64 -15z"/>
<path d="M5384 5243 c-6 -5 -14 -19 -17 -33 -4 -18 -11 -1092 -8 -1176 1 -14
33 -13 43 1 5 6 8 5 8 -4 0 -10 3 -11 13 -2 8 6 17 8 20 4 4 -3 7 50 8 118 0
68 2 336 5 594 2 259 1 475 -3 482 -11 15 -55 25 -69 16z"/>
<path d="M6533 5142 c-4 -8 0 -27 8 -41 18 -31 56 -40 186 -40 90 -1 130 8
166 37 24 21 21 35 -4 21 -17 -8 -23 -8 -30 2 -4 7 -5 17 -3 21 7 11 2 10 -42
-8 -46 -19 -164 -14 -233 10 -38 13 -43 12 -48 -2z"/>
<path d="M5380 4009 c0 -6 -5 -7 -12 -3 -7 5 -8 3 -2 -7 5 -8 9 -16 9 -19 1
-11 24 -44 25 -34 0 5 -5 15 -12 22 -9 9 -9 12 1 12 14 0 47 30 34 31 -4 0
-16 2 -25 4 -10 2 -18 -1 -18 -6z"/>
<path d="M3674 6734 c-23 -34 -9 -75 30 -89 24 -8 31 -6 47 14 23 28 24 49 3
79 -21 30 -59 29 -80 -4z"/>
<path d="M3369 6679 c-23 -23 -24 -57 -3 -87 18 -27 55 -29 77 -4 47 52 -25
140 -74 91z"/>
<path d="M3675 6574 c-22 -9 -82 -26 -133 -40 -52 -13 -98 -26 -103 -29 -15
-10 -10 -58 10 -91 12 -19 41 -42 75 -59 68 -33 124 -30 194 11 53 31 99 116
87 162 -15 61 -53 74 -130 46z"/>
<path d="M5670 6370 c-39 -39 -16 -100 39 -100 36 0 51 17 51 56 0 23 -7 38
-22 48 -30 21 -44 20 -68 -4z"/>
<path d="M6000 6328 c-27 -29 -22 -66 12 -91 25 -19 28 -19 52 -3 46 30 26
116 -27 116 -9 0 -26 -10 -37 -22z"/>
<path d="M5692 6188 c-7 -7 -12 -29 -12 -49 0 -45 47 -112 100 -143 45 -27
141 -28 188 -3 65 35 115 137 80 164 -7 6 -59 13 -114 17 -56 4 -117 11 -135
16 -46 14 -93 12 -107 -2z m266 -113 c9 -8 -44 -27 -75 -27 -39 0 -93 20 -93
34 0 8 158 1 168 -7z"/>
<path d="M6591 6414 c-11 -15 -21 -35 -21 -45 0 -53 82 -66 110 -16 13 24 13
30 0 55 -22 38 -61 41 -89 6z"/>
<path d="M6937 6398 c-9 -7 -19 -24 -22 -38 -12 -52 58 -103 93 -68 21 21 15
85 -10 102 -27 19 -39 20 -61 4z"/>
<path d="M6616 6247 c-50 -37 -2 -149 83 -194 114 -60 263 7 265 120 l1 41
-130 17 c-71 10 -146 20 -165 24 -24 4 -41 2 -54 -8z"/>
<path d="M3017 6139 c7 -7 15 -10 18 -7 3 3 -2 9 -12 12 -14 6 -15 5 -6 -5z"/>
<path d="M3011 5955 c1 -19 18 -51 18 -35 0 8 -4 22 -9 30 -5 8 -9 11 -9 5z"/>
<path d="M8088 5303 c7 -3 16 -2 19 1 4 3 -2 6 -13 5 -11 0 -14 -3 -6 -6z"/>
<path d="M7968 4066 c-8 -7 -23 -16 -35 -20 -30 -10 -23 -42 8 -38 l24 4 -21
-22 c-18 -18 -19 -26 -10 -56 6 -19 15 -34 19 -34 5 0 5 6 2 13 -4 6 1 3 11
-8 16 -20 16 -20 11 2 -3 13 -1 26 4 29 5 3 9 14 9 25 0 10 4 19 10 19 5 0 7
-8 3 -17 -5 -15 -3 -14 10 2 13 17 13 23 1 46 -7 15 -10 30 -6 34 4 3 0 5 -8
3 -9 -2 -14 4 -14 15 2 21 0 21 -18 3z m21 -47 c-16 -10 -23 -4 -14 10 3 6 11
8 17 5 6 -4 5 -9 -3 -15z"/>
<path d="M7995 3930 c-3 -5 -1 -10 4 -10 6 0 11 5 11 10 0 6 -2 10 -4 10 -3 0
-8 -4 -11 -10z"/>
<path d="M3272 3893 c-12 -24 -34 -51 -49 -60 -40 -26 -110 -22 -166 9 -38 21
-45 23 -37 9 19 -36 90 -91 117 -91 52 0 108 37 137 90 15 28 26 58 24 68 -3
12 -11 5 -26 -25z"/>
<path d="M7315 3891 c-22 -43 -76 -81 -114 -81 -20 0 -51 12 -77 30 -48 32
-56 25 -23 -21 47 -67 115 -73 182 -18 38 31 81 101 70 113 -12 12 -23 6 -38
-23z"/>
<path d="M6817 9635 c-26 -25 -47 -50 -47 -55 0 -5 14 -20 30 -32 17 -12 39
-36 50 -52 l19 -30 9 24 c6 14 26 40 46 59 l35 34 -41 46 c-23 25 -45 47 -48
49 -4 1 -28 -18 -53 -43z"/>
<path d="M6640 8925 c0 -27 14 -32 35 -12 11 11 10 15 -6 25 -26 17 -29 15
-29 -13z"/>
<path d="M5375 8928 c-4 -10 -5 -24 -2 -32 3 -8 0 -19 -6 -25 -16 -12 -13 -81
3 -91 7 -4 10 -13 6 -19 -5 -7 -1 -8 10 -4 13 5 15 3 9 -7 -6 -9 -4 -11 5 -5
8 5 18 1 27 -10 17 -25 17 -8 -3 46 -8 24 -21 71 -28 104 -9 43 -15 55 -21 43z"/>
<path d="M6640 8785 c1 -26 2 -28 11 -12 8 14 8 22 0 30 -8 8 -11 3 -11 -18z"/>
<path d="M6627 8713 c-4 -3 -7 -11 -7 -17 0 -6 5 -5 12 2 6 6 9 14 7 17 -3 3
-9 2 -12 -2z"/>
<path d="M5465 8640 c-3 -5 -1 -10 4 -10 6 0 11 5 11 10 0 6 -2 10 -4 10 -3 0
-8 -4 -11 -10z"/>
<path d="M6595 8639 c-4 -6 -5 -12 -2 -15 2 -3 7 2 10 11 7 17 1 20 -8 4z"/>
<path d="M6565 8620 c-5 -8 -15 -26 -23 -40 l-14 -25 20 23 c26 28 62 30 62 2
0 -29 17 -25 22 5 5 22 2 25 -23 25 -15 0 -29 5 -31 12 -3 9 -7 8 -13 -2z"/>
<path d="M5244 8569 c-19 -22 -19 -22 3 -10 24 12 39 31 25 31 -5 0 -17 -10
-28 -21z"/>
<path d="M5111 8529 c-25 -16 -55 -32 -68 -35 -13 -4 -23 -10 -23 -16 0 -17
22 -98 27 -98 5 0 173 170 173 176 0 2 -7 4 -16 4 -8 0 -12 -4 -9 -10 3 -5 -3
-10 -14 -10 -10 0 -21 4 -23 10 -1 5 -23 -4 -47 -21z"/>
<path d="M6384 8511 c-46 -11 -59 -21 -43 -32 19 -12 50 -11 47 0 -2 5 6 17
17 25 11 8 18 15 15 15 -3 -1 -19 -4 -36 -8z"/>
<path d="M6402 8428 c-24 -9 45 -8 83 2 25 7 23 8 -18 7 -26 -1 -55 -5 -65 -9z"/>
<path d="M6996 8334 c4 -50 11 -67 25 -59 13 9 11 79 -3 93 -21 21 -25 13 -22
-34z"/>
<path d="M8136 7722 c-3 -5 -1 -14 3 -20 6 -10 10 -10 20 1 9 12 8 16 -3 20
-9 4 -17 3 -20 -1z"/>
<path d="M1060 7236 c0 -8 -24 -35 -52 -60 l-53 -46 54 -47 c82 -73 78 -73
132 -12 26 30 48 58 49 64 0 11 -110 115 -122 115 -4 0 -8 -6 -8 -14z"/>
<path d="M8434 6538 c-5 -8 -2 -9 9 -5 10 3 17 3 17 -1 0 -4 9 -13 21 -20 21
-13 21 -13 3 12 -21 28 -39 33 -50 14z"/>
<path d="M9230 6450 c-6 -14 -34 -41 -61 -60 -28 -19 -52 -37 -55 -41 -2 -4
25 -28 61 -54 35 -26 62 -52 59 -56 -15 -24 16 -4 54 36 24 25 52 51 63 58 18
13 17 16 -26 42 -25 16 -45 34 -45 41 0 6 -9 22 -19 35 l-19 24 -12 -25z"/>
<path d="M7695 6118 l49 -103 7 55 c3 30 9 73 13 96 l7 41 -47 7 c-85 11 -84
16 -29 -96z"/>
<path d="M7839 5831 c7 -5 11 -13 7 -19 -3 -6 -2 -13 4 -17 6 -4 10 5 10 19 0
18 -5 26 -17 26 -14 0 -15 -2 -4 -9z"/>
<path d="M2556 5724 c-10 -26 -7 -29 9 -8 13 17 14 17 9 1 -5 -13 -1 -20 15
-24 11 -3 18 -9 15 -14 -3 -5 2 -9 10 -9 25 0 19 26 -10 49 -32 25 -40 26 -48
5z"/>
<path d="M2608 5653 c7 -3 16 -2 19 1 4 3 -2 6 -13 5 -11 0 -14 -3 -6 -6z"/>
<path d="M8610 5411 c-43 -6 -42 -7 30 -13 41 -3 79 -2 84 2 5 5 15 6 24 3 10
-4 13 -2 8 5 -8 13 -68 14 -146 3z"/>
<path d="M8900 4443 c0 -10 -3 -28 -6 -40 -4 -13 -2 -23 2 -23 5 0 10 18 12
40 1 22 0 40 -3 40 -3 0 -5 -8 -5 -17z"/>
<path d="M1350 4445 c0 -3 11 -16 25 -29 18 -16 26 -36 28 -63 3 -56 22 -49
25 9 3 45 1 49 -30 68 -33 20 -48 25 -48 15z"/>
<path d="M8870 4350 c-6 -12 -9 -24 -7 -27 3 -2 11 5 17 17 6 12 9 24 7 27 -3
2 -11 -5 -17 -17z"/>
<path d="M8626 3591 c-4 -5 3 -7 14 -4 23 6 26 13 6 13 -8 0 -17 -4 -20 -9z"/>
<path d="M8530 3582 c0 -4 18 -7 40 -7 22 0 40 3 40 8 0 4 -18 7 -40 7 -22 0
-40 -3 -40 -8z"/>
<path d="M9305 3308 c-44 -25 -47 -67 -8 -98 22 -17 35 -20 68 -14 44 7 85 38
85 65 0 45 -95 76 -145 47z"/>
<path d="M1057 3303 c-32 -5 -60 -42 -51 -67 13 -34 58 -46 174 -46 104 0 112
1 135 25 30 29 33 70 6 85 -19 9 -205 12 -264 3z"/>
<path d="M8726 3288 c-21 -29 -20 -40 5 -72 l20 -26 169 0 c93 0 176 3 185 6
21 9 46 59 39 79 -12 30 -44 35 -223 35 -175 0 -180 -1 -195 -22z"/>
<path d="M1793 2916 c-146 -28 -295 -87 -411 -163 -76 -50 -230 -203 -277
-278 -86 -135 -132 -273 -155 -463 -20 -161 10 -349 80 -513 108 -251 328
-471 572 -571 161 -66 343 -91 488 -69 97 15 256 69 361 122 77 38 84 40 94
24 75 -129 201 -194 352 -182 154 12 282 125 353 311 l10 26 194 0 195 0 36
-75 c42 -89 129 -187 195 -220 69 -35 159 -49 228 -34 74 15 141 49 183 93
l33 36 41 -39 c46 -45 68 -57 133 -76 86 -25 136 -28 201 -11 121 31 205 97
255 199 24 48 26 68 33 237 l8 185 141 3 141 3 5 -180 c5 -174 6 -182 36 -244
71 -154 194 -227 361 -215 126 9 248 93 305 210 22 46 29 75 33 155 3 54 9
104 13 112 5 9 26 -10 70 -63 238 -288 626 -438 958 -370 214 43 492 214 599
368 21 31 41 55 44 56 3 0 9 -42 12 -92 14 -241 143 -370 372 -372 79 -1 98 3
152 28 76 35 144 104 181 184 24 51 27 72 32 200 l5 143 165 3 c189 4 240 14
370 78 69 33 101 57 170 127 71 71 94 102 132 181 61 125 82 223 75 349 -12
219 -89 402 -231 550 -81 84 -124 116 -225 166 -139 70 -187 77 -546 82 -308
5 -322 4 -384 -17 -151 -51 -248 -164 -266 -313 -4 -32 -11 -59 -15 -62 -4 -2
-22 16 -41 41 -68 91 -220 207 -352 269 -124 59 -237 86 -377 92 -147 6 -229
-4 -360 -48 -181 -59 -316 -150 -458 -308 -40 -45 -77 -81 -81 -81 -5 0 -10
39 -13 88 -3 64 -10 100 -27 134 -36 75 -104 143 -178 180 -59 29 -75 32 -152
32 -47 0 -104 -6 -126 -14 -65 -21 -142 -76 -179 -127 -58 -79 -65 -113 -73
-349 l-6 -213 -136 -3 c-75 -2 -137 -3 -138 -3 -1 1 -6 102 -11 225 l-8 225
-34 63 c-40 76 -92 124 -180 166 -57 27 -76 31 -150 31 -76 0 -92 -3 -152 -33
-76 -37 -153 -114 -188 -188 -30 -64 -39 -209 -40 -611 0 -183 -4 -313 -9
-313 -5 0 -19 30 -32 68 -33 101 -284 725 -331 821 -88 184 -239 270 -454 259
-78 -4 -101 -10 -167 -42 -111 -53 -168 -113 -227 -239 -84 -179 -163 -373
-340 -837 -26 -68 -52 -126 -57 -127 -6 -2 -24 8 -41 22 -57 48 -120 69 -207
69 -92 1 -123 -12 -232 -94 -66 -50 -140 -80 -197 -80 -48 0 -148 52 -187 98
-123 144 -71 375 101 451 106 46 186 36 278 -36 150 -118 291 -140 432 -68
175 90 235 353 124 542 -82 139 -236 242 -452 304 -131 37 -329 48 -449 25z
m1782 -131 c59 -25 110 -69 140 -120 49 -85 348 -829 369 -920 4 -16 30 -85
57 -152 96 -239 142 -431 107 -447 -10 -5 -10 -7 -1 -12 8 -4 8 -15 -4 -42
-43 -104 -156 -153 -263 -113 -75 28 -118 76 -180 203 l-52 108 -294 0 -295 0
-55 -117 c-57 -122 -80 -155 -126 -179 -33 -17 -41 -18 -33 -1 4 6 1 5 -7 -4
-7 -9 -23 -19 -35 -23 -24 -8 -63 11 -63 31 0 17 -15 24 -35 17 -15 -6 -14 -9
6 -20 21 -11 22 -13 7 -19 -47 -18 -132 45 -164 120 -35 84 -9 239 79 468 24
62 54 146 67 187 12 41 45 131 72 200 27 69 64 166 83 215 48 126 209 500 229
529 24 37 81 77 139 98 63 23 191 19 252 -7z m1161 -10 c40 -23 76 -64 105
-115 10 -19 13 -87 14 -303 l0 -279 170 1 c94 1 218 4 276 7 l106 7 6 141 c4
77 7 195 7 261 0 99 4 128 21 165 73 162 264 195 377 65 66 -74 62 -21 57
-822 -5 -690 -8 -772 -33 -834 -16 -39 -80 -88 -138 -105 -94 -27 -195 18
-251 113 -28 48 -28 49 -34 271 -4 122 -9 225 -11 228 -3 3 -129 8 -280 11
l-275 6 -6 -129 c-4 -71 -7 -174 -7 -229 0 -118 -10 -158 -47 -198 -128 -134
-352 -81 -405 96 -10 33 -12 201 -10 760 3 778 1 749 57 823 14 18 53 47 87
64 56 28 69 31 118 25 30 -3 73 -17 96 -30z m-2604 11 c214 -41 383 -147 448
-280 92 -186 -24 -390 -205 -360 -50 8 -88 27 -142 71 -23 18 -68 46 -100 61
-51 24 -70 27 -158 27 -95 0 -104 -2 -176 -37 -158 -77 -235 -183 -246 -340
-16 -228 123 -411 340 -448 116 -21 233 20 362 123 61 49 76 57 113 57 73 0
145 -49 184 -125 17 -33 20 -51 15 -115 -10 -135 -66 -239 -162 -295 -44 -25
-65 -26 -65 -2 0 8 3 7 9 -2 7 -10 13 -11 27 -2 18 10 18 10 0 11 -18 0 -18 1
2 19 28 23 28 34 1 26 -14 -5 -25 -1 -34 12 -13 17 -14 17 -9 -3 3 -12 0 -25
-7 -30 -9 -5 -11 -2 -6 9 3 9 2 19 -2 22 -12 7 -23 -24 -14 -37 3 -7 1 -8 -5
-4 -7 4 -12 15 -12 24 -1 13 -5 11 -16 -8 -8 -14 -13 -18 -11 -9 3 9 1 22 -5
30 -8 11 -9 11 -4 -3 6 -20 -10 -34 -18 -16 -3 7 -3 0 0 -17 5 -28 4 -29 -9
-12 -16 20 -34 6 -21 -15 4 -7 -2 -5 -13 5 -14 12 -23 15 -28 7 -3 -5 -10 -8
-15 -5 -4 3 -6 -4 -3 -15 7 -26 -24 -28 -43 -3 -7 10 -16 14 -21 10 -4 -5 1
-15 11 -23 11 -7 17 -17 13 -20 -4 -4 -13 -2 -20 4 -8 7 -17 9 -20 5 -4 -3 -7
-1 -7 5 0 7 -4 12 -10 12 -5 0 -6 -8 -3 -17 5 -12 2 -15 -10 -10 -12 4 -14 2
-10 -11 5 -14 3 -15 -8 -4 -16 14 -33 16 -24 2 13 -21 -11 -8 -28 15 -19 26
-9 32 23 15 23 -12 48 11 28 27 -17 13 -48 13 -48 -1 0 -6 -5 -4 -10 4 -8 13
-10 12 -10 -2 0 -10 -5 -18 -12 -18 -6 0 -3 -7 8 -15 16 -12 17 -14 2 -15 -9
0 -18 -3 -21 -7 -2 -5 -2 -2 -1 5 2 6 -4 12 -12 12 -8 0 -13 -3 -11 -7 3 -5
-1 -14 -9 -21 -12 -11 -13 -7 -9 25 5 38 5 38 -10 13 -8 -14 -14 -18 -13 -10
2 8 -2 16 -7 18 -6 1 -10 -2 -10 -7 0 -5 -3 -13 -7 -17 -5 -4 -8 0 -8 8 0 20
-30 32 -44 18 -7 -7 -3 -10 12 -10 12 0 22 -4 22 -10 0 -10 -27 -3 -47 12 -7
6 -19 5 -32 -1 -25 -14 -44 -14 -36 -1 4 6 10 8 14 6 4 -3 12 -1 19 3 9 5 8
12 -4 27 -13 16 -15 16 -10 1 7 -22 -3 -22 -20 1 -13 16 -13 16 -14 -3 -1 -18
-2 -18 -11 -3 -5 10 -16 15 -24 11 -11 -4 -13 -1 -9 11 4 11 1 16 -10 16 -9 0
-16 6 -16 13 0 9 -2 9 -9 -1 -7 -11 -9 -11 -14 2 -3 8 -2 16 4 18 5 2 -1 9
-13 17 -20 13 -22 13 -10 -1 10 -13 9 -18 -5 -29 -15 -12 -16 -12 -11 2 5 13
0 18 -22 21 -21 3 -30 0 -33 -11 -3 -10 -5 -7 -6 7 0 12 -5 22 -11 22 -5 0 -7
-6 -4 -14 4 -11 0 -13 -15 -9 -13 3 -21 1 -21 -6 0 -7 4 -10 8 -7 4 2 14 -4
21 -16 12 -20 12 -20 -18 -2 l-31 18 23 25 c17 19 18 23 5 18 -12 -4 -27 3
-43 19 -28 28 -35 12 -7 -19 16 -19 16 -20 -3 -9 -28 14 -125 118 -163 174
-93 136 -162 365 -162 537 0 234 89 450 254 614 117 116 286 210 436 242 86
18 270 19 362 1z m4961 -11 c221 -58 420 -210 515 -393 l43 -82 -30 0 c-28 0
-61 21 -61 39 0 9 -97 71 -111 71 -5 0 -9 5 -9 10 0 6 -7 10 -16 10 -8 0 -13
4 -9 9 17 28 -215 155 -339 186 -81 20 -280 23 -346 5 -45 -12 -134 -52 -178
-79 -18 -11 -20 -16 -10 -23 9 -7 8 -8 -6 -4 -20 7 -49 -21 -39 -37 3 -5 9 -3
14 4 6 10 9 4 9 -17 0 -33 -20 -50 -38 -32 -6 6 -8 1 -5 -17 7 -36 -17 -60
-59 -59 -19 1 -32 7 -30 13 3 13 -8 14 -28 1 -13 -8 -12 -10 3 -10 11 0 17 -8
17 -24 0 -36 -17 -41 -29 -9 -11 28 -11 28 -6 -5 3 -24 -1 -39 -16 -55 -13
-15 -18 -29 -14 -45 4 -17 -4 -35 -31 -67 -25 -31 -32 -45 -21 -45 15 0 34
-66 23 -78 -3 -3 -6 4 -6 16 0 15 -6 22 -20 22 -13 0 -20 -7 -20 -20 0 -12
-10 -25 -25 -32 -14 -6 -25 -15 -25 -20 0 -4 -9 -8 -21 -8 -15 0 -20 -6 -18
-22 1 -13 -3 -36 -10 -53 -13 -31 -6 -105 10 -105 11 0 1 -50 -12 -64 -5 -5
-12 -6 -16 -2 -4 4 -1 11 6 15 27 17 -7 20 -40 4 -45 -22 -51 -31 -44 -78 8
-65 -11 -19 -28 65 -35 170 -31 250 20 405 54 166 111 262 227 383 108 113
296 213 454 242 68 13 307 3 375 -15z m1412 6 c204 -8 212 -9 291 -40 92 -36
201 -108 257 -170 41 -46 81 -126 73 -148 -7 -18 -56 -13 -88 10 -16 10 -33
15 -39 11 -8 -4 -9 -3 -5 4 14 24 -168 133 -274 164 -32 9 -121 13 -300 13
-140 0 -265 -1 -277 -3 -18 -3 -23 -11 -23 -32 0 -50 -17 -77 -70 -109 -36
-22 -50 -36 -46 -47 3 -9 6 -20 6 -25 0 -5 6 -9 13 -9 7 0 18 -9 25 -20 7 -12
8 -20 2 -20 -5 0 -10 -9 -10 -20 0 -16 7 -20 35 -20 19 0 35 -4 35 -10 0 -14
28 -12 33 3 2 6 8 8 13 4 5 -4 2 -12 -6 -17 -11 -7 -11 -11 -1 -24 21 -25 7
-44 -32 -42 -26 2 -34 -1 -30 -11 4 -9 0 -11 -11 -7 -9 3 -13 10 -10 15 3 5
-2 6 -10 3 -9 -3 -16 -12 -16 -20 0 -8 -5 -14 -12 -14 -9 0 -9 -3 0 -12 15
-15 16 -28 2 -28 -5 0 -10 7 -10 15 0 8 -6 15 -12 15 -9 0 -8 3 2 10 11 7 12
13 2 32 -6 13 -13 34 -14 48 -2 14 -7 -58 -11 -160 -8 -206 -22 -424 -38 -575
-6 -55 -11 -112 -11 -127 -1 -16 -6 -28 -10 -28 -5 0 -6 -4 -3 -10 3 -5 1 -10
-4 -10 -6 0 -11 -13 -11 -30 0 -16 -4 -30 -10 -30 -5 0 -10 -5 -10 -11 0 -15
-26 -39 -34 -32 -12 12 -7 1323 6 1364 15 52 73 117 122 140 47 21 156 23 521
10z m-1289 -234 c3 -3 -4 -11 -17 -17 -21 -12 -21 -13 -4 -23 14 -7 20 -7 23
1 2 7 10 12 19 12 19 0 48 -29 38 -38 -4 -4 -10 -1 -12 6 -6 16 -40 16 -45 0
-3 -8 -13 -5 -33 10 -15 12 -23 22 -16 22 15 0 14 27 -1 33 -7 3 -1 4 15 3 15
-2 30 -5 33 -9z m-106 -20 c0 -8 -6 -14 -14 -14 -8 0 -12 6 -9 14 3 7 9 13 14
13 5 0 9 -6 9 -13z m1090 -13 c0 -2 -9 -4 -21 -4 -11 0 -18 4 -14 10 5 8 35 3
35 -6z m-805 -64 c3 -6 -1 -7 -9 -4 -18 7 -21 14 -7 14 6 0 13 -4 16 -10z
m838 -4 c4 -10 1 -13 -9 -9 -7 3 -14 9 -14 14 0 14 17 10 23 -5z m-3 -41 c0
-8 -4 -15 -10 -15 -5 0 -7 7 -4 15 4 8 8 15 10 15 2 0 4 -7 4 -15z m768 -29
c-2 -1 -12 -8 -22 -16 -18 -14 -18 -14 -6 7 8 12 18 19 23 16 4 -3 7 -6 5 -7z
m-2563 -34 c-3 -3 -11 0 -18 7 -9 10 -8 11 6 5 10 -3 15 -9 12 -12z m468 -19
c-13 -2 -33 -2 -45 0 -13 2 -3 4 22 4 25 0 35 -2 23 -4z m70 -10 c-7 -2 -19
-2 -25 0 -7 3 -2 5 12 5 14 0 19 -2 13 -5z m1267 -24 c0 -5 -9 -9 -20 -9 -19
0 -27 20 -13 33 7 8 33 -11 33 -24z m313 24 c-29 -2 -78 -2 -110 0 -32 2 -8 3
52 3 61 0 87 -1 58 -3z m-889 -49 c3 -8 2 -12 -4 -9 -6 3 -10 10 -10 16 0 14
7 11 14 -7z m527 -6 c1 -15 3 -18 6 -7 5 20 86 36 92 18 2 -8 6 -7 12 2 8 13
15 -106 13 -226 l-1 -50 167 11 c135 9 174 15 201 30 47 28 79 79 79 126 0 35
2 38 19 28 13 -7 20 -7 23 1 2 5 14 0 27 -12 21 -20 23 -28 18 -77 -9 -81 -48
-139 -121 -176 -56 -29 -62 -30 -232 -34 -157 -4 -177 -3 -194 13 -11 10 -20
29 -20 41 0 18 -10 29 -37 41 -30 15 -39 25 -46 58 -4 22 -6 50 -4 62 3 17 -1
23 -22 25 -14 2 -30 13 -37 25 -8 17 -13 20 -22 11 -9 -9 -15 -9 -24 0 -9 9
-8 17 2 37 7 14 16 21 20 16 14 -24 60 2 60 35 0 30 20 32 21 2z m889 -24 c0
-8 -4 -14 -9 -14 -11 0 -22 26 -14 34 9 9 23 -3 23 -20z m-2084 -89 c52 -23
75 -47 115 -125 33 -64 33 -174 0 -248 -30 -66 -93 -123 -162 -145 -63 -21
-85 -21 -138 -2 -76 26 -119 65 -156 139 -30 58 -35 79 -35 137 0 82 22 139
76 192 87 87 184 104 300 52z m701 3 c-3 -8 -6 -5 -6 6 -1 11 2 17 5 13 3 -3
4 -12 1 -19z m-217 -33 c0 -5 -5 -3 -10 5 -5 8 -10 20 -10 25 0 6 5 3 10 -5 5
-8 10 -19 10 -25z m650 -15 c-6 -11 -15 -20 -20 -20 -6 0 -10 9 -10 20 0 13 7
20 20 20 18 0 19 -3 10 -20z m40 0 c0 -11 -7 -20 -15 -20 -13 0 -13 3 -3 20 7
11 14 20 15 20 2 0 3 -9 3 -20z m-890 -16 c0 25 18 19 37 -11 29 -46 40 -53
82 -53 37 0 40 2 43 32 4 37 28 51 28 16 0 -13 5 -29 12 -36 9 -9 9 -15 0 -24
-19 -19 -15 -48 8 -48 22 0 25 7 10 30 -6 9 -5 17 2 21 8 5 6 12 -5 24 -21 21
-21 22 1 27 15 4 18 -3 18 -57 0 -57 -1 -62 -20 -57 -15 4 -18 1 -13 -11 5
-13 1 -17 -17 -17 -28 0 -42 -26 -25 -46 9 -11 15 -12 26 -2 13 10 12 14 -3
25 -16 12 -14 13 16 7 45 -9 45 -9 33 -37 -8 -17 -8 -24 0 -25 29 -2 123 -4
132 -2 22 5 25 -1 9 -26 -9 -14 -23 -23 -30 -20 -8 3 -11 0 -7 -10 3 -8 12
-13 20 -10 9 4 13 1 10 -6 -2 -7 -8 -12 -13 -11 -5 0 -18 -10 -28 -25 -11 -14
-14 -22 -8 -18 7 4 12 1 13 -6 0 -7 2 -21 4 -31 3 -18 2 -18 -15 -2 -12 11
-20 13 -25 6 -8 -14 3 -33 15 -26 5 3 11 1 15 -5 3 -5 1 -10 -6 -10 -22 0 -79
71 -79 97 0 23 -3 25 -32 20 -22 -3 -39 1 -52 12 -11 9 -16 11 -13 4 4 -6 1
-13 -5 -16 -10 -3 -10 -7 1 -20 9 -11 10 -17 2 -17 -6 0 -11 4 -11 10 0 5 -8
6 -17 3 -11 -4 -12 -8 -5 -11 20 -6 14 -42 -7 -42 -11 0 -21 -9 -24 -22 -4
-12 -9 -19 -12 -16 -4 3 -1 16 5 28 6 11 9 26 7 33 -5 12 -33 -52 -29 -65 1
-5 -3 -8 -9 -8 -6 0 -8 -7 -5 -16 4 -10 1 -14 -6 -12 -7 3 -29 -18 -49 -46
-67 -93 -170 -146 -286 -146 -57 0 -96 15 -126 48 -17 19 -16 19 44 25 82 7
211 70 275 135 115 114 142 282 79 477 -6 18 -4 17 14 -4 16 -18 21 -20 21 -7z
m113 -41 c-7 -2 -19 -2 -25 0 -7 3 -2 5 12 5 14 0 19 -2 13 -5z m767 -13 c0
-13 -11 -13 -30 0 -12 8 -11 10 8 10 12 0 22 -4 22 -10z m-1890 -10 c0 -5 -4
-10 -10 -10 -5 0 -10 5 -10 10 0 6 5 10 10 10 6 0 10 -4 10 -10z m1310 -59
c-16 -5 -24 -14 -23 -25 1 -13 -2 -15 -10 -7 -14 14 10 41 37 40 19 -1 18 -2
-4 -8z m157 -73 c-3 -7 -5 -2 -5 12 0 14 2 19 5 13 2 -7 2 -19 0 -25z m-267
-4 c0 -2 -7 -4 -15 -4 -8 0 -15 4 -15 10 0 5 7 7 15 4 8 -4 15 -8 15 -10z
m150 -8 c0 -3 -4 -8 -10 -11 -5 -3 -10 -1 -10 4 0 6 5 11 10 11 6 0 10 -2 10
-4z m675 -125 c3 -5 2 -12 -3 -15 -5 -3 -9 1 -9 9 0 17 3 19 12 6z m-90 -21
c3 -5 1 -10 -4 -10 -6 0 -11 5 -11 10 0 6 2 10 4 10 3 0 8 -4 11 -10z m35 -5
c0 -8 -4 -15 -10 -15 -5 0 -10 7 -10 15 0 8 5 15 10 15 6 0 10 -7 10 -15z m90
5 c0 -5 -2 -10 -4 -10 -3 0 -8 5 -11 10 -3 6 -1 10 4 10 6 0 11 -4 11 -10z
m-695 -20 c16 -17 16 -20 3 -15 -9 4 -19 13 -22 21 -7 19 -2 18 19 -6z m640
-1 c4 -6 13 -8 21 -5 20 8 17 -8 -5 -28 -19 -17 -19 -17 -14 3 6 25 -12 28
-26 4 -11 -20 -15 -4 -5 21 7 18 20 21 29 5z m82 -11 c-3 -8 -6 -5 -6 6 -1 11
2 17 5 13 3 -3 4 -12 1 -19z m-6177 -590 c0 -18 -2 -20 -9 -8 -6 8 -7 18 -5
22 9 14 14 9 14 -14z m145 12 c3 -5 1 -10 -4 -10 -6 0 -11 5 -11 10 0 6 2 10
4 10 3 0 8 -4 11 -10z m-665 -10 c0 -5 -4 -10 -10 -10 -5 0 -10 5 -10 10 0 6
5 10 10 10 6 0 10 -4 10 -10z m351 -3 c-1 -12 -15 -9 -19 4 -3 6 1 10 8 8 6
-3 11 -8 11 -12z m329 -11 c0 -3 -4 -8 -10 -11 -5 -3 -10 -1 -10 4 0 6 5 11
10 11 6 0 10 -2 10 -4z m-260 -36 c0 -5 -2 -10 -4 -10 -3 0 -8 5 -11 10 -3 6
-1 10 4 10 6 0 11 -4 11 -10z m-110 -30 c0 -3 -10 -6 -22 -7 -13 0 -17 1 -10
4 6 3 12 12 12 21 0 15 2 15 10 2 5 -8 10 -17 10 -20z m182 5 c10 6 10 5 2 -4
-14 -15 -90 -28 -81 -13 4 5 16 8 27 5 12 -3 20 0 20 6 0 7 -4 9 -10 6 -5 -3
-10 2 -10 11 0 16 1 16 19 0 12 -11 25 -15 33 -11z"/>
<path d="M3425 2173 c-10 -26 -46 -118 -80 -203 -35 -85 -67 -176 -73 -203
l-10 -47 177 6 c97 4 177 8 179 9 1 1 -20 67 -48 146 -29 79 -65 185 -82 234
-17 50 -34 94 -38 98 -4 5 -16 -13 -25 -40z"/>
<path d="M2873 1033 c4 -3 2 -12 -4 -19 -18 -22 1 -38 20 -17 14 14 15 20 5
30 -7 7 -16 13 -20 13 -4 0 -4 -3 -1 -7z"/>
<path d="M1364 1292 c-9 -5 -9 -10 0 -18 10 -9 16 -7 24 7 10 15 9 19 0 19 -7
0 -18 -4 -24 -8z"/>
<path d="M2373 1212 c-8 -5 -9 -13 -3 -22 6 -8 10 -13 11 -10 0 3 2 13 4 23 4
19 4 19 -12 9z"/>
<path d="M2411 1211 c-7 -5 -9 -11 -4 -14 5 -3 15 -2 22 2 7 5 9 11 4 14 -5 3
-15 2 -22 -2z"/>
<path d="M1916 1125 c-3 -8 -1 -15 4 -15 6 0 10 7 10 15 0 8 -2 15 -4 15 -2 0
-6 -7 -10 -15z"/>
<path d="M2030 1130 c0 -5 5 -10 11 -10 5 0 7 5 4 10 -3 6 -8 10 -11 10 -2 0
-4 -4 -4 -10z"/>
<path d="M2060 1129 c0 -5 5 -7 10 -4 6 3 10 8 10 11 0 2 -4 4 -10 4 -5 0 -10
-5 -10 -11z"/>
<path d="M1750 1126 c0 -2 8 -10 18 -17 15 -13 16 -12 3 4 -13 16 -21 21 -21
13z"/>
<path d="M2121 1114 c0 -11 3 -14 6 -6 3 7 2 16 -1 19 -3 4 -6 -2 -5 -13z"/>
<path d="M6180 2110 c0 -5 5 -10 10 -10 6 0 10 5 10 10 0 6 -4 10 -10 10 -5 0
-10 -4 -10 -10z"/>
<path d="M6088 1803 c6 -2 18 -2 25 0 6 3 1 5 -13 5 -14 0 -19 -2 -12 -5z"/>
<path d="M8288 2215 c-3 -14 -1 -25 3 -25 5 0 9 11 9 25 0 14 -2 25 -4 25 -2
0 -6 -11 -8 -25z"/>
<path d="M8140 2187 c27 -15 36 -14 25 2 -3 6 -16 11 -28 11 -21 0 -21 -1 3
-13z"/>
<path d="M8285 2030 c3 -5 8 -10 11 -10 2 0 4 5 4 10 0 6 -5 10 -11 10 -5 0
-7 -4 -4 -10z"/>
<path d="M7452 2060 c0 -14 2 -19 5 -12 2 6 2 18 0 25 -3 6 -5 1 -5 -13z"/>
<path d="M7390 1980 c0 -16 7 -20 30 -20 23 0 30 4 30 20 0 16 -7 20 -30 20
-23 0 -30 -4 -30 -20z"/>
<path d="M7403 1943 c9 -2 23 -2 30 0 6 3 -1 5 -18 5 -16 0 -22 -2 -12 -5z"/>
<path d="M7485 1870 c-3 -6 1 -7 9 -4 18 7 21 14 7 14 -6 0 -13 -4 -16 -10z"/>
<path d="M7460 1841 c0 -5 -3 -18 -6 -28 -5 -16 -4 -16 10 1 18 23 20 36 6 36
-5 0 -10 -4 -10 -9z"/>
<path d="M7480 1820 c0 -5 9 -10 20 -10 11 0 20 5 20 10 0 6 -9 10 -20 10 -11
0 -20 -4 -20 -10z"/>
<path d="M7425 1810 c-3 -5 -1 -10 4 -10 6 0 11 5 11 10 0 6 -2 10 -4 10 -3 0
-8 -4 -11 -10z"/>
<path d="M7473 1793 c-18 -2 -33 -8 -33 -14 0 -14 44 -11 66 6 10 8 15 14 9
13 -5 -1 -25 -3 -42 -5z"/>
<path d="M7385 1760 c-3 -5 -1 -10 4 -10 6 0 11 5 11 10 0 6 -2 10 -4 10 -3 0
-8 -4 -11 -10z"/>
<path d="M8707 1191 c-24 -7 -47 -35 -47 -57 0 -33 36 -54 94 -54 27 0 90 -5
140 -12 l89 -11 24 27 c29 34 29 48 0 81 -22 26 -25 26 -155 28 -72 1 -138 0
-145 -2z"/>
<path d="M9163 1166 c-24 -21 -26 -27 -18 -52 l10 -29 120 -3 c135 -3 158 5
158 53 0 45 -25 55 -139 55 -94 0 -105 -2 -131 -24z"/>
<path d="M8794 931 c-110 -7 -134 -17 -134 -60 0 -46 14 -51 155 -51 127 0
132 1 154 24 17 18 22 32 17 49 -6 25 -45 48 -74 45 -9 -1 -62 -4 -118 -7z"/>
<path d="M9147 922 c-25 -28 -21 -69 8 -88 38 -25 180 -12 212 18 28 26 29 42
3 68 -17 17 -33 20 -113 20 -78 0 -97 -3 -110 -18z"/>
<path d="M3315 526 c-48 -21 -70 -53 -70 -101 0 -49 22 -80 73 -102 47 -20 91
-3 92 35 0 8 -15 12 -44 12 -45 0 -59 9 -70 47 -10 32 25 63 69 63 42 0 58 25
30 46 -23 17 -41 17 -80 0z"/>
<path d="M4565 527 c-3 -7 -6 -34 -7 -61 l-3 -49 -40 54 c-49 65 -79 75 -89
28 -10 -53 -7 -154 6 -167 26 -26 37 -13 40 50 l3 61 40 -54 c29 -38 48 -55
67 -57 l27 -3 -1 100 c-1 89 -3 100 -20 104 -11 3 -21 0 -23 -6z"/>
<path d="M4986 524 c-9 -8 -16 -32 -16 -53 0 -22 -6 -44 -15 -51 -24 -20 -18
-66 11 -89 32 -25 46 -26 106 -4 43 15 47 20 53 55 8 46 -1 61 -20 34 -8 -11
-21 -16 -30 -13 -20 8 -20 43 1 51 11 4 13 13 9 28 -17 54 -66 75 -99 42z m58
-30 c8 -20 -1 -34 -20 -34 -8 0 -14 10 -14 25 0 28 24 34 34 9z m-6 -96 c19
-19 14 -38 -11 -38 -30 0 -36 6 -30 31 6 22 23 25 41 7z"/>
<path d="M5872 528 c-73 -19 -93 -120 -36 -179 88 -91 223 47 146 149 -22 28
-68 41 -110 30z m76 -60 c26 -26 11 -85 -26 -99 -37 -14 -72 12 -72 54 0 41
15 57 55 57 17 0 36 -5 43 -12z"/>
<path d="M7050 435 c0 -88 3 -107 16 -112 24 -9 35 16 31 65 -3 23 -3 42 -1
42 2 0 22 -25 45 -55 31 -41 48 -55 63 -53 20 3 21 9 21 108 0 98 -1 105 -20
105 -17 0 -21 -8 -25 -60 l-5 -60 -24 35 c-36 52 -73 90 -88 90 -10 0 -13 -25
-13 -105z"/>
<path d="M3560 426 l0 -103 51 -7 c55 -8 79 3 79 35 0 16 -8 19 -46 19 l-46 0
4 80 c3 77 2 80 -19 80 -22 0 -23 -3 -23 -104z"/>
<path d="M3828 503 c-2 -16 -1 -62 2 -103 l5 -75 63 -3 c61 -3 63 -2 60 20 -2
19 -10 24 -40 26 -30 3 -38 7 -38 23 0 15 7 19 35 19 28 0 35 4 35 19 0 17 -5
19 -35 14 -34 -5 -36 -4 -39 30 -1 7 15 14 39 17 27 3 41 10 43 23 3 15 -5 17
-61 17 -63 0 -65 -1 -69 -27z"/>
<path d="M4151 493 c-8 -21 -22 -56 -32 -77 -24 -49 -35 -106 -21 -106 21 0
42 12 42 25 0 7 6 17 13 23 16 13 77 3 77 -13 0 -22 29 -40 42 -27 15 15 0 76
-38 156 -33 70 -63 77 -83 19z m54 -65 c6 -24 4 -28 -15 -28 -18 0 -21 4 -16
23 3 12 6 29 6 37 0 21 17 0 25 -32z"/>
<path d="M5460 425 c0 -58 2 -105 4 -105 25 0 36 16 36 56 0 53 14 57 30 9 6
-19 15 -37 20 -40 4 -3 21 16 37 42 l28 48 3 -52 c3 -45 6 -53 23 -53 18 0 19
8 19 100 l0 100 -29 0 c-26 0 -32 -6 -47 -45 -9 -25 -20 -45 -23 -45 -4 0 -17
20 -29 45 -17 36 -27 45 -47 45 l-25 0 0 -105z"/>
<path d="M6154 469 c3 -34 6 -82 6 -105 l0 -44 45 0 c58 0 99 21 113 57 22 56
19 83 -14 122 -24 29 -30 31 -91 31 l-66 0 7 -61z m114 -1 c31 -31 5 -98 -37
-98 -33 0 -41 14 -41 71 0 37 1 39 33 39 18 0 38 -5 45 -12z"/>
<path d="M6474 514 c3 -9 6 -56 6 -105 l0 -89 65 0 c58 0 65 2 65 20 0 15 -7
20 -29 20 -42 0 -61 9 -61 30 0 14 9 20 37 22 52 4 56 28 4 28 -23 0 -42 5
-42 10 -5 32 -1 35 41 40 32 4 46 10 48 23 3 15 -5 17 -68 17 -62 0 -71 -2
-66 -16z"/>
<path d="M6755 521 c-3 -6 -8 -45 -11 -88 -6 -86 7 -122 40 -110 14 5 16 14
11 37 -9 42 14 39 43 -5 22 -35 45 -44 57 -24 4 6 -3 21 -16 35 l-22 24 21 23
c27 29 28 71 2 97 -15 15 -33 20 -69 20 -28 0 -52 -4 -56 -9z m99 -66 c-8 -21
-74 -20 -74 0 0 20 40 35 62 24 10 -5 15 -16 12 -24z"/>
</g>
</svg>
