<?xml version="1.0" encoding="iso-8859-1"?>
<!-- Uploaded to: SVG Repo, www.svgrepo.com, Generator: SVG Repo Mixer Tools -->
<svg height="800px" width="800px" version="1.1" id="Layer_1" xmlns="http://www.w3.org/2000/svg" xmlns:xlink="http://www.w3.org/1999/xlink" 
	 viewBox="0 0 512.004 512.004" xml:space="preserve">
<g>
	<path style="fill:#FAA85F;" d="M50.669,206.945h42.426c22.191,0,41.286,15.663,45.638,37.423l12.474,116.433L320.26,191.747
		l-122.438-5.562l-46.545-128l-23.273,55.668L11.64,148.763l17.42,43.555C32.598,201.161,41.15,206.945,50.669,206.945z"/>
	<path style="fill:#FAA85F;" d="M475.222,171.07c-13.44,16.803-34.118,26.17-55.61,25.193l-52.131-2.374L245.764,315.605
		c10.449,2.851,36.596,9.1,68.422,10.217c54.516,1.908,76.311-11.636,76.311-11.636c10.019,0,18.909,6.412,22.074,15.907
		l35.933,107.811c3.177,9.507,12.079,15.919,22.086,15.919h6.505c12.858,0,23.273-10.415,23.273-23.273V139.64L475.222,171.07z"/>
	<path style="fill:#FAA85F;" d="M155.99,405.379l3.188,29.731c2.164,10.88,11.718,18.711,22.819,18.711h5.969
		c5.69,0,10.543-4.108,11.473-9.728l16.431-98.607L155.99,405.379z"/>
</g>
<g>
	<path style="fill:#00384E;" d="M504.219,128.667c-4.655-1.652-9.856-0.151-12.94,3.7l-25.146,31.43
		c-11.089,13.859-28.369,21.516-45.999,20.841l-41.519-1.885l-22.284,22.284l62.743,2.851c25.158,1.233,49.513-9.903,65.222-29.545
		l4.433-5.527v257.734c0,6.423-5.225,11.636-11.636,11.636h-6.505c-5.015,0-9.449-3.188-11.031-7.959l-35.945-107.823
		c-4.748-14.266-18.06-23.855-33.105-23.855c-2.06,0-4.224,0.628-6.004,1.676c-0.209,0.128-20.62,11.567-69.9,9.972
		c-25.228-0.884-46.895-5.178-59.264-8.157l-53.609,53.609l-13.766,82.537h-5.969c-5.527,0-10.333-3.933-11.252-8.308l-4.189-39.052
		l-21.097,21.097l2.304,21.481c3.247,16.256,17.641,28.055,34.234,28.055h5.969c11.427,0,21.085-8.18,22.959-19.456l18.42-110.464
		c0.861-5.143,4.98-9.007,10.042-9.623c7.994,2.327,37.423,10.24,74.403,11.532c45.871,1.664,70.202-7.18,79.104-11.392
		c4.003,0.826,7.331,3.724,8.657,7.715l35.945,107.823c4.736,14.278,18.048,23.866,33.094,23.866h6.505
		c19.247,0,34.909-15.663,34.909-34.909V139.64C512.004,134.694,508.885,130.296,504.219,128.667z"/>
	<path style="fill:#00384E;" d="M473.686,38.322c-4.55-4.55-11.904-4.55-16.454,0L315.664,179.89l-109.556-4.98L162.215,54.206
		c-1.641-4.503-5.865-7.54-10.671-7.657c-4.887-0.279-9.158,2.723-11.008,7.145L119.393,104.3L8.301,137.615
		c-3.13,0.943-5.725,3.153-7.145,6.097s-1.536,6.342-0.326,9.379l17.431,43.567c5.329,13.324,18.06,21.935,32.407,21.935h42.426
		c16.582,0,30.976,11.811,34.071,27.02l11.904,110.871L38.323,457.231c-4.55,4.55-4.55,11.904,0,16.454
		c2.269,2.269,5.248,3.409,8.227,3.409s5.958-1.14,8.227-3.409L473.686,54.776C478.235,50.226,478.235,42.872,473.686,38.322z
		 M150.148,242.086c-5.423-27.101-29.417-46.778-57.053-46.778H50.669c-4.783,0-9.03-2.874-10.799-7.308l-12.695-31.756
		l104.18-31.244c3.34-1.001,6.051-3.444,7.401-6.656l11.776-28.183l36.364,100.003c1.606,4.422,5.713,7.436,10.415,7.645
		l96.081,4.364L160.167,335.387L150.148,242.086z"/>
</g>
</svg>