<?xml version="1.0" encoding="iso-8859-1"?>
<!-- Uploaded to: SVG Repo, www.svgrepo.com, Generator: SVG Repo Mixer Tools -->
<svg height="800px" width="800px" version="1.1" id="Layer_1" xmlns="http://www.w3.org/2000/svg" xmlns:xlink="http://www.w3.org/1999/xlink" 
	 viewBox="0 0 512 512" xml:space="preserve">
<path style="fill:#FF7452;" d="M53.617,290.181c-0.047-2.289-1.087-4.445-2.849-5.906c-1.762-1.461-4.074-2.085-6.33-1.708
	l-33.643,5.607c-3.804,0.634-6.59,3.923-6.59,7.778v67.285c0,3.855,2.786,7.144,6.589,7.778l35.265,5.878
	c0.432,0.071,0.865,0.107,1.296,0.107c1.88,0,3.715-0.673,5.158-1.922c1.775-1.535,2.773-3.781,2.725-6.126L53.617,290.181z"/>
<path style="fill:#E24642;" d="M191.517,95.135c-3.06-1.163-6.52-0.315-8.696,2.131l-67.285,75.696
	c-2.063,2.321-2.572,5.636-1.299,8.468c1.272,2.832,4.087,4.655,7.192,4.655h67.285c4.355,0,7.885-3.53,7.885-7.885v-75.696
	C196.6,99.231,194.577,96.298,191.517,95.135z"/>
<g>
	<path style="fill:#FF7452;" d="M218.152,447.869h-50.464c-4.355,0-7.885,3.53-7.885,7.885v46.259c0,4.355,3.53,7.885,7.885,7.885
		h50.464c4.355,0,7.885-3.53,7.885-7.885v-46.259C226.037,451.399,222.507,447.869,218.152,447.869z"/>
	<path style="fill:#FF7452;" d="M327.491,447.869h-50.464c-4.355,0-7.885,3.53-7.885,7.885v46.259c0,4.355,3.53,7.885,7.885,7.885
		h50.464c4.355,0,7.885-3.53,7.885-7.885v-46.259C335.376,451.399,331.845,447.869,327.491,447.869z"/>
</g>
<path style="fill:#E24642;" d="M449.446,287.014c-4.355,0-7.885-3.53-7.885-7.885c0-4.355,3.53-7.885,7.885-7.885
	c23.478,0,42.579-19.101,42.579-42.579s-19.101-42.579-42.579-42.579c-4.355,0-7.885-3.53-7.885-7.885
	c0-4.355,3.53-7.885,7.885-7.885c32.174,0,58.349,26.175,58.349,58.349S481.62,287.014,449.446,287.014z"/>
<path style="fill:#FF7452;" d="M344.312,161.906H150.867c-62.319,0-113.018,50.7-113.018,113.018v75.696
	c0,6.662,0.587,13.349,1.744,19.871c9.415,53.049,55.397,92.213,109.337,93.123c0.044,0,0.088,0.001,0.132,0.001
	c0.021,0,0.041,0,0.062,0l214.116-1.667c0.451-0.003,0.9-0.045,1.344-0.126c53.741-9.737,92.748-56.505,92.748-111.202v-75.696
	C457.331,212.605,406.631,161.906,344.312,161.906z"/>
<g>
	<path style="fill:#E24642;" d="M277.027,287.014c4.355,0,7.885-3.53,7.885-7.885c0-4.355-3.53-7.885-7.885-7.885h-21.552v-8.936
		c0-4.355-3.53-7.885-7.885-7.885c-4.355,0-7.885,3.53-7.885,7.885v8.936h-6.834c-10.144,0-18.398,8.254-18.398,18.398v16.821
		c0,10.144,8.254,18.398,18.398,18.398h6.834v22.078h-21.552c-4.355,0-7.885,3.53-7.885,7.885c0,4.355,3.53,7.885,7.885,7.885
		h21.552v8.936c0,4.355,3.53,7.885,7.885,7.885c4.355,0,7.885-3.53,7.885-7.885v-8.936h6.834c10.144,0,18.398-8.254,18.398-18.398
		v-16.821c0-10.144-8.254-18.398-18.398-18.398h-6.834v-22.078H277.027z M262.308,324.862c1.449,0,2.628,1.18,2.628,2.628v16.821
		c0,1.449-1.18,2.628-2.628,2.628h-6.834v-22.078H262.308z M239.704,309.092h-6.834c-1.449,0-2.628-1.18-2.628-2.628v-16.821
		c0-1.449,1.18-2.628,2.628-2.628h6.834V309.092z"/>
	<path style="fill:#E24642;" d="M397.7,431.858c-0.444,0.081-0.894,0.123-1.344,0.126l-214.116,1.667c-0.021,0-0.042,0-0.062,0
		c-0.044,0-0.088,0-0.132-0.001c-53.94-0.91-99.921-40.074-109.337-93.123c-1.158-6.521-1.744-13.208-1.744-19.87v-75.696
		c0-25.135,8.252-48.377,22.183-67.169c-33.088,19.737-55.3,55.886-55.3,97.132v75.696c0,6.662,0.587,13.349,1.744,19.871
		c9.415,53.049,55.397,92.213,109.337,93.123c0.044,0,0.088,0.001,0.132,0.001c0.021,0,0.041,0,0.062,0l214.116-1.667
		c0.451-0.003,0.9-0.045,1.344-0.126c29.168-5.285,53.978-21.492,70.583-43.942C423.874,424.583,411.258,429.402,397.7,431.858z"/>
	<path style="fill:#E24642;" d="M306.464,211.318H188.715c-4.355,0-7.885-3.53-7.885-7.885s3.53-7.885,7.885-7.885h117.749
		c4.355,0,7.885,3.53,7.885,7.885S310.819,211.318,306.464,211.318z"/>
	<path style="fill:#E24642;" d="M138.251,287.014c-4.355,0-7.885-3.53-7.885-7.885c0-9.565-7.782-17.347-17.347-17.347
		s-17.347,7.782-17.347,17.347c0,4.355-3.53,7.885-7.885,7.885c-4.355,0-7.885-3.53-7.885-7.885
		c0-18.261,14.856-33.117,33.117-33.117s33.117,14.856,33.117,33.117C146.136,283.484,142.605,287.014,138.251,287.014z"/>
</g>
<circle style="fill:#F7EDBC;" cx="372.698" cy="233.922" r="30.489"/>
<path style="fill:#AFF078;" d="M511.133,402.446l-4.907-18.314l2.966-18.727c0.35-2.208-0.253-4.459-1.66-6.196l-11.933-14.736
	l-4.908-18.314c-0.578-2.158-2.046-3.97-4.037-4.984l-16.894-8.608l-11.932-14.734c-1.406-1.737-3.483-2.796-5.715-2.912
	l-18.935-0.992l-16.894-8.608c-1.99-1.015-4.319-1.138-6.405-0.335l-17.701,6.795l-18.935-0.992
	c-2.233-0.115-4.407,0.719-5.988,2.299l-13.407,13.407l-17.701,6.795c-2.086,0.801-3.735,2.45-4.535,4.535l-6.795,17.701
	l-13.407,13.407c-1.58,1.58-2.416,3.756-2.299,5.988l0.991,18.935l-6.795,17.701c-0.801,2.086-0.679,4.415,0.335,6.406l8.608,16.893
	l0.991,18.935c0.117,2.232,1.175,4.308,2.912,5.715l14.736,11.933l8.608,16.894c1.015,1.991,2.826,3.459,4.985,4.037l18.314,4.907
	l14.736,11.933c1.736,1.407,3.988,2.01,6.196,1.66l18.727-2.966l18.314,4.908c0.673,0.18,1.358,0.268,2.041,0.268
	c1.511,0,3.005-0.434,4.295-1.272l15.901-10.327l18.727-2.966c2.207-0.35,4.162-1.619,5.38-3.494l10.326-15.901l15.901-10.327
	c1.875-1.217,3.143-3.173,3.494-5.38l2.966-18.727l10.326-15.901C511.346,406.906,511.711,404.604,511.133,402.446z"/>
<circle style="fill:#5AC779;" cx="407.392" cy="388.468" r="84.107"/>
<g>
	<path style="fill:#00A085;" d="M379.143,387.028c-13.623,0-24.706-11.083-24.706-24.706s11.083-24.706,24.706-24.706
		s24.706,11.083,24.706,24.706S392.766,387.028,379.143,387.028z M379.143,353.385c-4.928,0-8.936,4.009-8.936,8.936
		s4.009,8.936,8.936,8.936s8.936-4.009,8.936-8.936S384.07,353.385,379.143,353.385z"/>
	<path style="fill:#00A085;" d="M435.642,443.527c-13.623,0-24.706-11.083-24.706-24.706s11.083-24.706,24.706-24.706
		s24.706,11.083,24.706,24.706S449.265,443.527,435.642,443.527z M435.642,409.884c-4.928,0-8.936,4.009-8.936,8.936
		s4.009,8.936,8.936,8.936s8.936-4.009,8.936-8.936S440.569,409.884,435.642,409.884z"/>
	<path style="fill:#00A085;" d="M367.331,438.517c-2.018,0-4.036-0.77-5.575-2.31c-3.079-3.079-3.079-8.072,0-11.15l82.004-82.004
		c3.079-3.079,8.072-3.079,11.15,0c3.079,3.079,3.079,8.072,0,11.15l-82.004,82.004
		C371.366,437.747,369.349,438.517,367.331,438.517z"/>
</g>
<g>
	<path style="fill:#FFD652;" d="M97.236,98.894c-5.352-0.712-18.843-3.692-28.475-15.972c-6.843-8.729-8.486-18.201-8.856-23.068
		c-0.313-4.111-3.741-7.287-7.863-7.287s-7.55,3.176-7.863,7.287c-0.37,4.869-2.014,14.339-8.855,23.067
		C25.69,95.203,12.2,98.183,6.846,98.894C2.928,99.415,0,102.757,0,106.71c0,3.953,2.928,7.295,6.846,7.817
		c5.353,0.712,18.844,3.691,28.475,15.972c6.843,8.729,8.486,18.201,8.856,23.068c0.313,4.111,3.74,7.287,7.863,7.287
		s7.55-3.176,7.863-7.287c0.37-4.869,2.014-14.339,8.855-23.067c9.633-12.283,23.124-15.262,28.476-15.974
		c3.918-0.52,6.846-3.863,6.846-7.816C104.082,102.757,101.154,99.415,97.236,98.894z"/>
	<path style="fill:#FFD652;" d="M505.154,98.894c-5.353-0.712-18.844-3.691-28.475-15.972c-6.843-8.729-8.486-18.201-8.856-23.068
		c-0.313-4.111-3.741-7.287-7.863-7.287c-4.122,0-7.55,3.176-7.863,7.287c-0.37,4.869-2.014,14.339-8.856,23.068
		c-9.632,12.281-23.123,15.261-28.475,15.973c-3.918,0.52-6.846,3.863-6.846,7.816c0,3.953,2.928,7.295,6.846,7.817
		c5.353,0.712,18.844,3.691,28.475,15.972c6.843,8.729,8.486,18.201,8.856,23.068c0.313,4.111,3.74,7.287,7.863,7.287
		c4.123,0,7.55-3.176,7.863-7.287c0.37-4.869,2.014-14.339,8.855-23.067c9.633-12.283,23.124-15.262,28.476-15.974
		c3.919-0.52,6.846-3.863,6.846-7.817S509.072,99.415,505.154,98.894z"/>
	<path style="fill:#FFD652;" d="M303.297,48.43c-5.352-0.712-18.843-3.692-28.475-15.972c-6.843-8.729-8.486-18.201-8.856-23.068
		c-0.313-4.111-3.741-7.287-7.863-7.287c-4.122,0-7.55,3.176-7.863,7.287c-0.37,4.869-2.014,14.339-8.855,23.067
		c-9.633,12.283-23.124,15.262-28.476,15.974c-3.918,0.52-6.846,3.863-6.846,7.816s2.928,7.295,6.846,7.817
		c5.353,0.712,18.844,3.691,28.475,15.972c6.843,8.729,8.486,18.201,8.856,23.068c0.313,4.111,3.74,7.287,7.863,7.287
		c4.123,0,7.55-3.176,7.863-7.287c0.37-4.869,2.014-14.339,8.855-23.067c9.633-12.283,23.124-15.262,28.476-15.974
		c3.918-0.52,6.846-3.863,6.846-7.816S307.216,48.951,303.297,48.43z"/>
</g>
</svg>